<svg xmlns="http://www.w3.org/2000/svg" xmlns:xlink="http://www.w3.org/1999/xlink" width="200" zoomAndPan="magnify" viewBox="0 0 150 60" height="80" preserveAspectRatio="xMidYMid meet" version="1.0"><defs><g><g id="id1"/></g><clipPath id="id2"><path d="M 0 35.03125 L 30 35.03125 L 30 53.78125 L 0 53.78125 Z M 0 35.03125 " clip-rule="nonzero"/></clipPath><clipPath id="id3"><path d="M 124.535156 8.078125 L 150 8.078125 L 150 23.828125 L 124.535156 23.828125 Z M 124.535156 8.078125 " clip-rule="nonzero"/></clipPath></defs><rect x="-15" width="180" fill="rgb(100%, 100%, 100%)" y="-6" height="72" fill-opacity="1"/><rect x="-15" width="180" fill="rgb(100%, 100%, 100%)" y="-6" height="72" fill-opacity="1"/><rect x="-15" width="180" fill="rgb(100%, 100%, 100%)" y="-6" height="72" fill-opacity="1"/><rect x="-15" width="180" fill="rgb(100%, 100%, 100%)" y="-6" height="72" fill-opacity="1"/><g clip-path="url(#id2)"><path fill="rgb(0%, 50.19989%, 21.569824%)" d="M 9.902344 43.132812 C 10.230469 43.671875 10.613281 44.164062 11.023438 44.636719 C 12.175781 45.953125 13.511719 47.039062 14.957031 47.992188 C 16.175781 48.796875 17.472656 49.441406 18.800781 50.035156 C 19.378906 50.292969 19.960938 50.535156 20.550781 50.761719 C 20.617188 50.789062 20.617188 50.8125 20.589844 50.871094 C 20.226562 51.617188 19.714844 52.222656 19.035156 52.683594 C 18.464844 53.074219 17.839844 53.316406 17.179688 53.492188 C 16.847656 53.582031 16.5 53.59375 16.164062 53.675781 C 15.730469 53.78125 15.292969 53.769531 14.855469 53.769531 C 13.894531 53.761719 12.957031 53.609375 12.039062 53.339844 C 10.511719 52.886719 9.144531 52.132812 7.925781 51.078125 C 7.003906 50.277344 6.226562 49.34375 5.546875 48.316406 C 4.789062 47.167969 4.183594 45.933594 3.664062 44.652344 C 3.25 43.621094 2.882812 42.570312 2.546875 41.503906 C 2.203125 40.417969 1.859375 39.324219 1.527344 38.230469 C 1.394531 37.785156 1.28125 37.335938 1.125 36.898438 C 0.980469 36.507812 0.832031 36.113281 0.578125 35.78125 C 0.425781 35.585938 0.28125 35.378906 0.0859375 35.222656 C 0.0664062 35.210938 0.0507812 35.195312 0.0390625 35.175781 C 0.0117188 35.144531 0 35.105469 0.03125 35.066406 C 0.0625 35.03125 0.101562 35.03125 0.136719 35.054688 C 0.46875 35.28125 0.851562 35.332031 1.226562 35.398438 C 1.734375 35.488281 2.25 35.5 2.765625 35.550781 C 3.742188 35.648438 4.71875 35.703125 5.695312 35.78125 C 6.726562 35.863281 7.753906 35.96875 8.78125 36.101562 C 10.09375 36.273438 11.410156 36.453125 12.695312 36.78125 C 14.382812 37.210938 16.003906 37.832031 17.53125 38.703125 C 18.699219 39.367188 19.734375 40.207031 20.621094 41.230469 C 21.296875 42.011719 21.867188 42.867188 22.285156 43.824219 C 22.632812 44.632812 22.851562 45.472656 22.835938 46.363281 C 22.820312 47.117188 22.632812 47.816406 22.242188 48.457031 C 22.097656 48.691406 21.957031 48.929688 21.792969 49.148438 C 21.753906 49.207031 21.746094 49.226562 21.824219 49.246094 C 23.5 49.695312 25.167969 50.164062 26.871094 50.515625 C 27.554688 50.660156 28.242188 50.785156 28.925781 50.957031 C 29.230469 51.035156 29.539062 51.113281 29.800781 51.3125 C 29.878906 51.375 29.941406 51.453125 29.960938 51.550781 C 30 51.714844 29.921875 51.855469 29.761719 51.917969 C 29.667969 51.953125 29.570312 51.964844 29.46875 51.964844 C 28.972656 51.976562 28.476562 51.925781 27.984375 51.859375 C 26.820312 51.714844 25.675781 51.453125 24.546875 51.128906 C 23.617188 50.859375 22.691406 50.566406 21.8125 50.15625 C 20.617188 49.597656 19.378906 49.136719 18.175781 48.589844 C 16.425781 47.792969 14.679688 46.972656 13.078125 45.875 C 12.003906 45.136719 11.003906 44.300781 10.117188 43.335938 C 10.050781 43.261719 9.984375 43.1875 9.921875 43.117188 C 9.914062 43.113281 9.910156 43.109375 9.902344 43.105469 C 9.898438 43.113281 9.898438 43.125 9.902344 43.132812 Z M 9.902344 43.132812 " fill-opacity="1" fill-rule="nonzero"/></g><g clip-path="url(#id3)"><path fill="rgb(0%, 50.19989%, 21.569824%)" d="M 132.953125 14.882812 C 133.230469 15.335938 133.558594 15.75 133.90625 16.148438 C 134.882812 17.253906 136.023438 18.164062 137.25 18.964844 C 138.285156 19.644531 139.390625 20.183594 140.515625 20.683594 C 141.007812 20.898438 141.503906 21.101562 142.003906 21.292969 C 142.058594 21.316406 142.0625 21.335938 142.039062 21.386719 C 141.730469 22.011719 141.292969 22.519531 140.714844 22.90625 C 140.230469 23.234375 139.699219 23.4375 139.140625 23.585938 C 138.855469 23.660156 138.558594 23.671875 138.277344 23.738281 C 137.90625 23.828125 137.535156 23.820312 137.164062 23.820312 C 136.347656 23.8125 135.550781 23.683594 134.769531 23.457031 C 133.46875 23.078125 132.308594 22.445312 131.273438 21.558594 C 130.488281 20.886719 129.828125 20.101562 129.25 19.238281 C 128.605469 18.273438 128.089844 17.238281 127.652344 16.160156 C 127.300781 15.292969 126.988281 14.410156 126.703125 13.519531 C 126.40625 12.601562 126.117188 11.6875 125.835938 10.765625 C 125.722656 10.394531 125.625 10.015625 125.492188 9.648438 C 125.371094 9.316406 125.242188 8.988281 125.027344 8.707031 C 124.898438 8.542969 124.777344 8.371094 124.609375 8.242188 C 124.59375 8.230469 124.582031 8.214844 124.570312 8.203125 C 124.546875 8.175781 124.535156 8.140625 124.5625 8.109375 C 124.585938 8.078125 124.621094 8.078125 124.652344 8.101562 C 124.933594 8.289062 125.261719 8.332031 125.578125 8.386719 C 126.011719 8.460938 126.449219 8.472656 126.886719 8.515625 C 127.714844 8.597656 128.546875 8.644531 129.378906 8.707031 C 130.253906 8.777344 131.128906 8.867188 132 8.976562 C 133.117188 9.121094 134.234375 9.273438 135.328125 9.550781 C 136.761719 9.910156 138.140625 10.433594 139.441406 11.164062 C 140.429688 11.722656 141.3125 12.425781 142.066406 13.285156 C 142.640625 13.941406 143.125 14.660156 143.476562 15.464844 C 143.773438 16.144531 143.960938 16.847656 143.945312 17.597656 C 143.933594 18.234375 143.773438 18.820312 143.441406 19.355469 C 143.320312 19.554688 143.199219 19.753906 143.058594 19.9375 C 143.027344 19.984375 143.019531 20.003906 143.085938 20.019531 C 144.511719 20.398438 145.929688 20.789062 147.375 21.085938 C 147.957031 21.207031 148.542969 21.3125 149.121094 21.457031 C 149.382812 21.519531 149.644531 21.585938 149.867188 21.753906 C 149.933594 21.808594 149.988281 21.871094 150.003906 21.957031 C 150.035156 22.09375 149.96875 22.210938 149.835938 22.261719 C 149.753906 22.292969 149.671875 22.304688 149.585938 22.304688 C 149.160156 22.3125 148.742188 22.269531 148.324219 22.214844 C 147.332031 22.09375 146.359375 21.875 145.402344 21.601562 C 144.609375 21.375 143.824219 21.128906 143.078125 20.785156 C 142.058594 20.3125 141.007812 19.929688 139.988281 19.46875 C 138.496094 18.800781 137.015625 18.109375 135.652344 17.1875 C 134.738281 16.566406 133.890625 15.867188 133.136719 15.054688 C 133.078125 14.992188 133.023438 14.929688 132.96875 14.871094 C 132.964844 14.867188 132.960938 14.863281 132.953125 14.863281 C 132.949219 14.867188 132.949219 14.875 132.953125 14.882812 Z M 132.953125 14.882812 " fill-opacity="1" fill-rule="nonzero"/></g><g fill="rgb(0%, 50.19989%, 21.569824%)" fill-opacity="1"><g transform="translate(12.867187, 41.558079)"><g><path d="M 13.25 -6.703125 C 12.132812 -6.703125 11.414062 -6.722656 11.09375 -6.765625 C 10.769531 -6.816406 10.5 -6.929688 10.28125 -7.109375 C 10.070312 -7.296875 9.929688 -7.515625 9.859375 -7.765625 C 9.796875 -8.023438 9.90625 -8.457031 10.1875 -9.0625 C 10.320312 -9.394531 10.539062 -9.976562 10.84375 -10.8125 C 11.144531 -11.644531 11.390625 -12.25 11.578125 -12.625 C 11.765625 -13 11.972656 -13.347656 12.203125 -13.671875 C 12.441406 -13.992188 12.648438 -14.164062 12.828125 -14.1875 C 13.015625 -14.21875 13.273438 -14.070312 13.609375 -13.75 C 13.835938 -13.414062 14.113281 -12.921875 14.4375 -12.265625 C 14.757812 -11.617188 15.015625 -11.066406 15.203125 -10.609375 L 15.84375 -8.859375 C 15.976562 -8.390625 16.046875 -8.066406 16.046875 -7.890625 C 15.953125 -7.554688 15.71875 -7.273438 15.34375 -7.046875 C 14.976562 -6.816406 14.675781 -6.6875 14.4375 -6.65625 C 14.207031 -6.632812 13.8125 -6.648438 13.25 -6.703125 Z M 12.90625 -2.09375 C 11.925781 -2.039062 11.210938 -1.945312 10.765625 -1.8125 C 10.328125 -1.675781 9.992188 -1.515625 9.765625 -1.328125 C 9.535156 -1.140625 9.117188 -0.695312 8.515625 0 C 7.910156 0.695312 7.328125 1.21875 6.765625 1.5625 C 6.210938 1.914062 5.585938 2.113281 4.890625 2.15625 C 4.234375 2.25 3.632812 2.164062 3.09375 1.90625 C 2.5625 1.65625 2.097656 1.296875 1.703125 0.828125 C 1.304688 0.367188 1.0625 -0.179688 0.96875 -0.828125 C 0.882812 -1.484375 1.003906 -2.507812 1.328125 -3.90625 C 1.703125 -5.300781 2.117188 -6.648438 2.578125 -7.953125 C 3.046875 -9.253906 3.628906 -10.71875 4.328125 -12.34375 C 5.023438 -13.976562 5.742188 -15.535156 6.484375 -17.015625 C 7.234375 -18.503906 7.828125 -19.585938 8.265625 -20.265625 C 8.710938 -20.941406 9.164062 -21.507812 9.625 -21.96875 C 10.09375 -22.4375 10.570312 -22.796875 11.0625 -23.046875 C 11.550781 -23.304688 12.097656 -23.460938 12.703125 -23.515625 C 13.347656 -23.515625 13.984375 -23.328125 14.609375 -22.953125 C 15.242188 -22.578125 15.835938 -22.097656 16.390625 -21.515625 C 16.953125 -20.941406 17.566406 -20.109375 18.234375 -19.015625 C 18.910156 -17.921875 19.484375 -16.882812 19.953125 -15.90625 L 21.203125 -13.046875 L 23.015625 -9.140625 C 23.390625 -8.210938 23.75 -7.128906 24.09375 -5.890625 C 24.445312 -4.660156 24.726562 -3.578125 24.9375 -2.640625 C 25.144531 -1.710938 25.132812 -0.878906 24.90625 -0.140625 C 24.625 0.648438 24.203125 1.195312 23.640625 1.5 C 23.085938 1.800781 22.578125 1.972656 22.109375 2.015625 C 21.367188 2.109375 20.679688 2.0625 20.046875 1.875 C 19.421875 1.695312 18.910156 1.457031 18.515625 1.15625 C 18.117188 0.851562 17.664062 0.378906 17.15625 -0.265625 C 16.644531 -0.921875 16.238281 -1.351562 15.9375 -1.5625 C 15.632812 -1.78125 15.203125 -1.921875 14.640625 -1.984375 C 14.085938 -2.054688 13.507812 -2.09375 12.90625 -2.09375 Z M 22.875 -1.328125 C 22.925781 -1.554688 22.90625 -2.066406 22.8125 -2.859375 C 22.71875 -3.648438 22.265625 -5.125 21.453125 -7.28125 C 20.640625 -9.445312 20.09375 -10.84375 19.8125 -11.46875 C 19.53125 -12.101562 18.96875 -13.253906 18.125 -14.921875 C 17.289062 -16.597656 16.617188 -17.84375 16.109375 -18.65625 C 15.597656 -19.46875 15.039062 -20.109375 14.4375 -20.578125 C 13.832031 -21.046875 13.253906 -21.28125 12.703125 -21.28125 C 12.179688 -21.226562 11.722656 -21.039062 11.328125 -20.71875 C 10.941406 -20.394531 10.488281 -19.859375 9.96875 -19.109375 C 9.457031 -18.367188 8.890625 -17.425781 8.265625 -16.28125 C 7.640625 -15.144531 7.023438 -13.890625 6.421875 -12.515625 C 5.816406 -11.148438 5.363281 -10.015625 5.0625 -9.109375 C 4.757812 -8.203125 4.421875 -7.175781 4.046875 -6.03125 C 3.671875 -4.894531 3.425781 -4.046875 3.3125 -3.484375 C 3.195312 -2.929688 3.160156 -2.441406 3.203125 -2.015625 C 3.203125 -1.503906 3.34375 -1.050781 3.625 -0.65625 C 3.90625 -0.257812 4.300781 -0.0390625 4.8125 0 C 5.226562 0.0390625 5.738281 -0.0625 6.34375 -0.3125 C 6.945312 -0.570312 7.484375 -1.023438 7.953125 -1.671875 L 8.9375 -3 C 9.113281 -3.1875 9.351562 -3.359375 9.65625 -3.515625 C 9.957031 -3.679688 10.34375 -3.796875 10.8125 -3.859375 C 11.28125 -3.929688 11.957031 -3.992188 12.84375 -4.046875 C 13.90625 -4.085938 14.65625 -4.0625 15.09375 -3.96875 C 15.539062 -3.882812 15.914062 -3.757812 16.21875 -3.59375 C 16.519531 -3.425781 16.738281 -3.273438 16.875 -3.140625 C 17.019531 -3.003906 17.273438 -2.703125 17.640625 -2.234375 C 18.015625 -1.765625 18.4375 -1.304688 18.90625 -0.859375 C 19.375 -0.421875 19.863281 -0.125 20.375 0.03125 C 20.882812 0.195312 21.382812 0.175781 21.875 -0.03125 C 22.363281 -0.238281 22.695312 -0.671875 22.875 -1.328125 Z M 22.875 -1.328125 "/></g></g></g><g fill="rgb(0%, 50.19989%, 21.569824%)" fill-opacity="1"><g transform="translate(38.950057, 41.558079)"><g><path d="M 26.09375 -10.8125 C 25.945312 -8.488281 25.835938 -6.847656 25.765625 -5.890625 C 25.703125 -4.941406 25.613281 -4.046875 25.5 -3.203125 C 25.382812 -2.367188 25.195312 -1.578125 24.9375 -0.828125 C 24.6875 -0.0859375 24.289062 0.554688 23.75 1.109375 C 23.21875 1.671875 22.601562 1.960938 21.90625 1.984375 C 21.207031 2.003906 20.601562 1.804688 20.09375 1.390625 C 19.675781 1.117188 19.328125 0.75 19.046875 0.28125 C 18.765625 -0.1875 18.632812 -0.789062 18.65625 -1.53125 C 18.6875 -2.28125 18.640625 -2.757812 18.515625 -2.96875 C 18.398438 -3.175781 18.25 -3.289062 18.0625 -3.3125 C 17.882812 -3.332031 17.703125 -3.226562 17.515625 -3 C 17.421875 -2.863281 17.222656 -2.398438 16.921875 -1.609375 C 16.617188 -0.816406 16.195312 -0.175781 15.65625 0.3125 C 15.125 0.800781 14.566406 1.078125 13.984375 1.140625 C 13.398438 1.210938 12.832031 1.066406 12.28125 0.703125 C 11.769531 0.421875 11.289062 -0.03125 10.84375 -0.65625 C 10.40625 -1.289062 10.082031 -1.875 9.875 -2.40625 C 9.664062 -2.9375 9.46875 -3.210938 9.28125 -3.234375 C 9.09375 -3.265625 8.929688 -3.1875 8.796875 -3 C 8.648438 -2.8125 8.566406 -2.40625 8.546875 -1.78125 C 8.523438 -1.15625 8.410156 -0.597656 8.203125 -0.109375 C 7.992188 0.378906 7.65625 0.832031 7.1875 1.25 C 6.71875 1.675781 6.15625 1.957031 5.5 2.09375 C 4.851562 2.226562 4.179688 2.113281 3.484375 1.75 C 2.742188 1.414062 2.222656 0.96875 1.921875 0.40625 C 1.617188 -0.144531 1.40625 -0.90625 1.28125 -1.875 C 1.164062 -2.851562 1.0625 -4.378906 0.96875 -6.453125 C 0.882812 -8.523438 0.84375 -10.09375 0.84375 -11.15625 C 0.84375 -12.789062 0.898438 -14.28125 1.015625 -15.625 C 1.128906 -16.976562 1.21875 -17.96875 1.28125 -18.59375 C 1.351562 -19.21875 1.550781 -19.867188 1.875 -20.546875 C 2.207031 -21.222656 2.617188 -21.757812 3.109375 -22.15625 C 3.597656 -22.550781 4.035156 -22.816406 4.421875 -22.953125 C 4.816406 -23.085938 5.25 -23.179688 5.71875 -23.234375 C 6.226562 -23.234375 6.738281 -23.148438 7.25 -22.984375 C 7.757812 -22.828125 8.257812 -22.535156 8.75 -22.109375 C 9.238281 -21.691406 9.65625 -21.226562 10 -20.71875 C 10.351562 -20.207031 10.75 -19.460938 11.1875 -18.484375 C 11.632812 -17.503906 11.960938 -16.703125 12.171875 -16.078125 C 12.378906 -15.453125 12.5625 -14.960938 12.71875 -14.609375 C 12.882812 -14.265625 13.082031 -14.066406 13.3125 -14.015625 C 13.550781 -13.972656 13.878906 -14.300781 14.296875 -15 C 14.578125 -15.414062 14.960938 -16.25 15.453125 -17.5 C 15.941406 -18.757812 16.488281 -19.832031 17.09375 -20.71875 C 17.695312 -21.601562 18.347656 -22.273438 19.046875 -22.734375 C 19.742188 -23.203125 20.535156 -23.414062 21.421875 -23.375 C 22.160156 -23.28125 22.804688 -23 23.359375 -22.53125 C 23.921875 -22.0625 24.390625 -21.46875 24.765625 -20.75 C 25.140625 -20.03125 25.414062 -19.179688 25.59375 -18.203125 C 25.78125 -17.234375 25.898438 -16.304688 25.953125 -15.421875 Z M 21.34375 0.0625 C 21.582031 0.15625 21.863281 0.144531 22.1875 0.03125 C 22.507812 -0.0820312 22.8125 -0.367188 23.09375 -0.828125 C 23.375 -1.296875 23.601562 -2.003906 23.78125 -2.953125 C 23.96875 -3.910156 24.128906 -4.992188 24.265625 -6.203125 C 24.410156 -7.410156 24.460938 -8.992188 24.421875 -10.953125 C 24.367188 -12.347656 24.285156 -13.835938 24.171875 -15.421875 C 24.054688 -17.003906 23.90625 -18.1875 23.71875 -18.96875 C 23.53125 -19.757812 23.203125 -20.375 22.734375 -20.8125 C 22.273438 -21.257812 21.671875 -21.460938 20.921875 -21.421875 C 20.367188 -21.328125 19.800781 -21.054688 19.21875 -20.609375 C 18.632812 -20.171875 18.210938 -19.71875 17.953125 -19.25 C 17.703125 -18.789062 17.253906 -17.769531 16.609375 -16.1875 L 15 -12.484375 C 14.71875 -11.597656 14.460938 -11.003906 14.234375 -10.703125 C 14.003906 -10.398438 13.722656 -10.222656 13.390625 -10.171875 C 13.066406 -10.128906 12.742188 -10.34375 12.421875 -10.8125 C 12.234375 -11 12.09375 -11.226562 12 -11.5 C 11.90625 -11.78125 11.5 -12.828125 10.78125 -14.640625 C 10.0625 -16.460938 9.582031 -17.582031 9.34375 -18 C 9.113281 -18.414062 8.773438 -18.960938 8.328125 -19.640625 C 7.890625 -20.316406 7.519531 -20.757812 7.21875 -20.96875 C 6.914062 -21.175781 6.53125 -21.300781 6.0625 -21.34375 C 5.789062 -21.34375 5.476562 -21.296875 5.125 -21.203125 C 4.78125 -21.109375 4.457031 -20.882812 4.15625 -20.53125 C 3.851562 -20.1875 3.582031 -19.722656 3.34375 -19.140625 C 3.113281 -18.566406 2.925781 -17.882812 2.78125 -17.09375 C 2.644531 -16.300781 2.566406 -14.972656 2.546875 -13.109375 C 2.523438 -11.253906 2.5625 -9.375 2.65625 -7.46875 C 2.695312 -5.925781 2.753906 -4.523438 2.828125 -3.265625 C 2.898438 -2.015625 3.144531 -1.085938 3.5625 -0.484375 C 3.976562 0.117188 4.488281 0.429688 5.09375 0.453125 C 5.695312 0.472656 6.234375 0.179688 6.703125 -0.421875 C 6.929688 -0.742188 7.078125 -1.179688 7.140625 -1.734375 C 7.210938 -2.296875 7.304688 -3.039062 7.421875 -3.96875 C 7.546875 -4.90625 7.640625 -5.628906 7.703125 -6.140625 C 7.773438 -6.648438 7.867188 -7.03125 7.984375 -7.28125 C 8.097656 -7.539062 8.257812 -7.726562 8.46875 -7.84375 C 8.6875 -7.957031 9.003906 -7.878906 9.421875 -7.609375 C 9.648438 -7.367188 9.878906 -6.992188 10.109375 -6.484375 L 11.015625 -3.96875 C 11.296875 -3.28125 11.65625 -2.644531 12.09375 -2.0625 C 12.539062 -1.476562 12.992188 -1.148438 13.453125 -1.078125 C 13.921875 -1.015625 14.410156 -1.238281 14.921875 -1.75 C 15.109375 -1.925781 15.367188 -2.410156 15.703125 -3.203125 L 16.671875 -5.4375 L 17.09375 -6.5625 C 17.320312 -7.113281 17.609375 -7.503906 17.953125 -7.734375 C 18.304688 -7.972656 18.632812 -8.035156 18.9375 -7.921875 C 19.238281 -7.804688 19.484375 -7.351562 19.671875 -6.5625 C 19.804688 -5.769531 19.863281 -4.753906 19.84375 -3.515625 C 19.820312 -2.285156 19.972656 -1.390625 20.296875 -0.828125 C 20.628906 -0.273438 20.976562 0.0195312 21.34375 0.0625 Z M 21.34375 0.0625 "/></g></g></g><g fill="rgb(0%, 50.19989%, 21.569824%)" fill-opacity="1"><g transform="translate(65.730329, 41.558079)"><g><path d="M 5.296875 -23.296875 C 6.046875 -23.296875 6.617188 -23.179688 7.015625 -22.953125 C 7.410156 -22.722656 7.789062 -22.363281 8.15625 -21.875 C 8.53125 -21.382812 8.8125 -20.882812 9 -20.375 C 9.1875 -19.863281 9.328125 -19.210938 9.421875 -18.421875 C 9.515625 -17.628906 9.609375 -16.59375 9.703125 -15.3125 C 9.796875 -14.03125 9.851562 -12.878906 9.875 -11.859375 C 9.894531 -10.835938 9.90625 -9.789062 9.90625 -8.71875 C 9.863281 -7.414062 9.816406 -6.296875 9.765625 -5.359375 C 9.722656 -4.429688 9.640625 -3.429688 9.515625 -2.359375 C 9.398438 -1.296875 9.179688 -0.488281 8.859375 0.0625 C 8.535156 0.625 8.082031 1.085938 7.5 1.453125 C 6.914062 1.828125 6.207031 1.992188 5.375 1.953125 C 4.53125 1.953125 3.804688 1.789062 3.203125 1.46875 C 2.597656 1.144531 2.144531 0.710938 1.84375 0.171875 C 1.539062 -0.359375 1.320312 -1.367188 1.1875 -2.859375 C 1.050781 -4.347656 0.984375 -5.628906 0.984375 -6.703125 L 0.984375 -12 C 0.984375 -14.789062 0.984375 -16.414062 0.984375 -16.875 C 1.023438 -18.132812 1.207031 -19.179688 1.53125 -20.015625 C 1.851562 -20.859375 2.222656 -21.523438 2.640625 -22.015625 C 3.066406 -22.503906 3.488281 -22.828125 3.90625 -22.984375 C 4.320312 -23.148438 4.785156 -23.253906 5.296875 -23.296875 Z M 5.375 -21.140625 C 4.90625 -21.085938 4.492188 -20.910156 4.140625 -20.609375 C 3.796875 -20.304688 3.539062 -19.910156 3.375 -19.421875 C 3.21875 -18.941406 3.101562 -18.222656 3.03125 -17.265625 C 2.96875 -16.316406 2.921875 -15.382812 2.890625 -14.46875 C 2.867188 -13.5625 2.882812 -12.625 2.9375 -11.65625 C 2.9375 -10.300781 2.945312 -8.785156 2.96875 -7.109375 C 2.988281 -5.441406 3.03125 -4.1875 3.09375 -3.34375 C 3.164062 -2.507812 3.285156 -1.894531 3.453125 -1.5 C 3.617188 -1.101562 3.863281 -0.765625 4.1875 -0.484375 C 4.507812 -0.203125 4.945312 -0.0507812 5.5 -0.03125 C 6.0625 -0.0078125 6.578125 -0.207031 7.046875 -0.625 C 7.328125 -0.863281 7.523438 -1.175781 7.640625 -1.5625 C 7.753906 -1.957031 7.820312 -2.398438 7.84375 -2.890625 C 7.875 -3.378906 7.898438 -4.4375 7.921875 -6.0625 C 7.941406 -7.695312 7.960938 -8.710938 7.984375 -9.109375 C 8.003906 -9.503906 7.992188 -10.65625 7.953125 -12.5625 L 7.890625 -15.765625 C 7.835938 -16.929688 7.753906 -17.816406 7.640625 -18.421875 C 7.523438 -19.023438 7.347656 -19.535156 7.109375 -19.953125 C 6.878906 -20.367188 6.601562 -20.671875 6.28125 -20.859375 C 5.957031 -21.046875 5.65625 -21.140625 5.375 -21.140625 Z M 5.375 -21.140625 "/></g></g></g><g fill="rgb(0%, 50.19989%, 21.569824%)" fill-opacity="1"><g transform="translate(76.540074, 41.558079)"><g><path d="M 22.875 -12.140625 L 22.875 -9.140625 L 1.46875 -9.140625 L 1.46875 -12.140625 Z M 22.875 -12.140625 "/></g></g></g><g fill="rgb(0%, 50.19989%, 21.569824%)" fill-opacity="1"><g transform="translate(101.088657, 41.558079)"><g><path d="M 0.84375 -12.34375 C 0.84375 -14.675781 0.929688 -16.46875 1.109375 -17.71875 C 1.296875 -18.976562 1.539062 -20 1.84375 -20.78125 C 2.144531 -21.570312 2.585938 -22.222656 3.171875 -22.734375 C 3.753906 -23.253906 4.460938 -23.582031 5.296875 -23.71875 C 6.140625 -23.851562 6.894531 -23.757812 7.5625 -23.4375 C 8.238281 -23.113281 8.804688 -22.613281 9.265625 -21.9375 C 9.734375 -21.257812 10.015625 -20.441406 10.109375 -19.484375 C 10.203125 -18.535156 10.226562 -17.457031 10.1875 -16.25 C 10.09375 -14.4375 10.046875 -13.160156 10.046875 -12.421875 L 10.046875 -10.671875 C 9.992188 -9.421875 10.085938 -8.535156 10.328125 -8.015625 C 10.460938 -7.460938 10.691406 -7.054688 11.015625 -6.796875 C 11.347656 -6.546875 11.910156 -6.441406 12.703125 -6.484375 C 13.160156 -6.484375 13.53125 -6.539062 13.8125 -6.65625 C 14.09375 -6.78125 14.328125 -6.957031 14.515625 -7.1875 C 14.703125 -7.414062 14.863281 -7.726562 15 -8.125 C 15.132812 -8.519531 15.226562 -9.113281 15.28125 -9.90625 C 15.320312 -11.164062 15.269531 -12.863281 15.125 -15 C 14.988281 -17.132812 14.96875 -18.484375 15.0625 -19.046875 C 15.15625 -19.929688 15.375 -20.6875 15.71875 -21.3125 C 16.070312 -21.9375 16.484375 -22.398438 16.953125 -22.703125 C 17.421875 -23.003906 17.976562 -23.203125 18.625 -23.296875 C 19.644531 -23.390625 20.5625 -23.226562 21.375 -22.8125 C 22.195312 -22.394531 22.78125 -21.867188 23.125 -21.234375 C 23.476562 -20.609375 23.722656 -19.9375 23.859375 -19.21875 C 23.992188 -18.5 24.109375 -17.640625 24.203125 -16.640625 C 24.296875 -15.640625 24.378906 -14.234375 24.453125 -12.421875 C 24.523438 -10.609375 24.515625 -9.164062 24.421875 -8.09375 C 24.328125 -7.019531 24.128906 -5.820312 23.828125 -4.5 C 23.523438 -3.175781 23.1875 -2.234375 22.8125 -1.671875 C 22.4375 -1.117188 21.96875 -0.617188 21.40625 -0.171875 C 20.851562 0.265625 20.320312 0.632812 19.8125 0.9375 C 19.300781 1.238281 18.707031 1.503906 18.03125 1.734375 C 17.351562 1.972656 16.457031 2.148438 15.34375 2.265625 C 14.226562 2.378906 13.273438 2.414062 12.484375 2.375 C 11.785156 2.375 10.925781 2.328125 9.90625 2.234375 C 8.882812 2.140625 8 1.972656 7.25 1.734375 C 6.507812 1.503906 5.820312 1.226562 5.1875 0.90625 C 4.5625 0.582031 4.070312 0.257812 3.71875 -0.0625 C 3.375 -0.394531 3.015625 -0.800781 2.640625 -1.28125 C 2.273438 -1.769531 1.988281 -2.25 1.78125 -2.71875 C 1.570312 -3.1875 1.40625 -3.722656 1.28125 -4.328125 C 1.164062 -4.929688 1.0625 -5.960938 0.96875 -7.421875 C 0.882812 -8.890625 0.84375 -10.53125 0.84375 -12.34375 Z M 18.90625 -21.421875 C 18.300781 -21.273438 17.832031 -20.976562 17.5 -20.53125 C 17.175781 -20.09375 16.976562 -19.363281 16.90625 -18.34375 C 16.84375 -17.320312 16.832031 -16.347656 16.875 -15.421875 L 16.953125 -12.484375 C 16.953125 -11.785156 16.953125 -11.132812 16.953125 -10.53125 C 16.898438 -9.644531 16.828125 -8.898438 16.734375 -8.296875 C 16.648438 -7.691406 16.476562 -7.097656 16.21875 -6.515625 C 15.96875 -5.941406 15.5625 -5.46875 15 -5.09375 C 14.4375 -4.71875 13.597656 -4.53125 12.484375 -4.53125 C 11.742188 -4.488281 11.101562 -4.554688 10.5625 -4.734375 C 10.03125 -4.921875 9.578125 -5.257812 9.203125 -5.75 C 8.835938 -6.238281 8.570312 -6.738281 8.40625 -7.25 C 8.238281 -7.757812 8.128906 -8.46875 8.078125 -9.375 C 8.035156 -10.289062 8.0625 -11.398438 8.15625 -12.703125 C 8.15625 -13.210938 8.203125 -14.101562 8.296875 -15.375 C 8.390625 -16.65625 8.414062 -17.71875 8.375 -18.5625 C 8.28125 -19.625 8.019531 -20.390625 7.59375 -20.859375 C 7.175781 -21.328125 6.628906 -21.570312 5.953125 -21.59375 C 5.285156 -21.613281 4.742188 -21.4375 4.328125 -21.0625 C 3.910156 -20.695312 3.609375 -20.070312 3.421875 -19.1875 C 3.234375 -18.300781 3.054688 -17.320312 2.890625 -16.25 C 2.734375 -15.1875 2.675781 -13.882812 2.71875 -12.34375 L 2.796875 -8.9375 C 2.796875 -7.445312 2.828125 -6.441406 2.890625 -5.921875 C 2.960938 -5.410156 3.101562 -4.851562 3.3125 -4.25 C 3.519531 -3.644531 3.9375 -2.984375 4.5625 -2.265625 C 5.195312 -1.546875 5.875 -1 6.59375 -0.625 C 7.3125 -0.25 8.144531 0.0234375 9.09375 0.203125 C 10.050781 0.390625 11.132812 0.484375 12.34375 0.484375 C 13.320312 0.535156 14.367188 0.5 15.484375 0.375 C 16.597656 0.257812 17.585938 -0.00390625 18.453125 -0.421875 C 19.316406 -0.835938 20.023438 -1.359375 20.578125 -1.984375 C 21.140625 -2.617188 21.554688 -3.492188 21.828125 -4.609375 C 22.109375 -5.722656 22.304688 -6.847656 22.421875 -7.984375 C 22.546875 -9.128906 22.609375 -10.375 22.609375 -11.71875 C 22.554688 -13.019531 22.457031 -14.425781 22.3125 -15.9375 C 22.175781 -17.445312 21.96875 -18.597656 21.6875 -19.390625 C 21.414062 -20.179688 21.007812 -20.738281 20.46875 -21.0625 C 19.9375 -21.394531 19.414062 -21.515625 18.90625 -21.421875 Z M 18.90625 -21.421875 "/></g></g></g><g fill="rgb(0%, 50.19989%, 21.569824%)" fill-opacity="1"><g transform="translate(126.334643, 41.558079)"><g><path d="M 5.296875 -23.296875 C 6.046875 -23.296875 6.617188 -23.179688 7.015625 -22.953125 C 7.410156 -22.722656 7.789062 -22.363281 8.15625 -21.875 C 8.53125 -21.382812 8.8125 -20.882812 9 -20.375 C 9.1875 -19.863281 9.328125 -19.210938 9.421875 -18.421875 C 9.515625 -17.628906 9.609375 -16.59375 9.703125 -15.3125 C 9.796875 -14.03125 9.851562 -12.878906 9.875 -11.859375 C 9.894531 -10.835938 9.90625 -9.789062 9.90625 -8.71875 C 9.863281 -7.414062 9.816406 -6.296875 9.765625 -5.359375 C 9.722656 -4.429688 9.640625 -3.429688 9.515625 -2.359375 C 9.398438 -1.296875 9.179688 -0.488281 8.859375 0.0625 C 8.535156 0.625 8.082031 1.085938 7.5 1.453125 C 6.914062 1.828125 6.207031 1.992188 5.375 1.953125 C 4.53125 1.953125 3.804688 1.789062 3.203125 1.46875 C 2.597656 1.144531 2.144531 0.710938 1.84375 0.171875 C 1.539062 -0.359375 1.320312 -1.367188 1.1875 -2.859375 C 1.050781 -4.347656 0.984375 -5.628906 0.984375 -6.703125 L 0.984375 -12 C 0.984375 -14.789062 0.984375 -16.414062 0.984375 -16.875 C 1.023438 -18.132812 1.207031 -19.179688 1.53125 -20.015625 C 1.851562 -20.859375 2.222656 -21.523438 2.640625 -22.015625 C 3.066406 -22.503906 3.488281 -22.828125 3.90625 -22.984375 C 4.320312 -23.148438 4.785156 -23.253906 5.296875 -23.296875 Z M 5.375 -21.140625 C 4.90625 -21.085938 4.492188 -20.910156 4.140625 -20.609375 C 3.796875 -20.304688 3.539062 -19.910156 3.375 -19.421875 C 3.21875 -18.941406 3.101562 -18.222656 3.03125 -17.265625 C 2.96875 -16.316406 2.921875 -15.382812 2.890625 -14.46875 C 2.867188 -13.5625 2.882812 -12.625 2.9375 -11.65625 C 2.9375 -10.300781 2.945312 -8.785156 2.96875 -7.109375 C 2.988281 -5.441406 3.03125 -4.1875 3.09375 -3.34375 C 3.164062 -2.507812 3.285156 -1.894531 3.453125 -1.5 C 3.617188 -1.101562 3.863281 -0.765625 4.1875 -0.484375 C 4.507812 -0.203125 4.945312 -0.0507812 5.5 -0.03125 C 6.0625 -0.0078125 6.578125 -0.207031 7.046875 -0.625 C 7.328125 -0.863281 7.523438 -1.175781 7.640625 -1.5625 C 7.753906 -1.957031 7.820312 -2.398438 7.84375 -2.890625 C 7.875 -3.378906 7.898438 -4.4375 7.921875 -6.0625 C 7.941406 -7.695312 7.960938 -8.710938 7.984375 -9.109375 C 8.003906 -9.503906 7.992188 -10.65625 7.953125 -12.5625 L 7.890625 -15.765625 C 7.835938 -16.929688 7.753906 -17.816406 7.640625 -18.421875 C 7.523438 -19.023438 7.347656 -19.535156 7.109375 -19.953125 C 6.878906 -20.367188 6.601562 -20.671875 6.28125 -20.859375 C 5.957031 -21.046875 5.65625 -21.140625 5.375 -21.140625 Z M 5.375 -21.140625 "/></g></g></g></svg>