<?xml version="1.0" standalone="no"?>
<!DOCTYPE svg PUBLIC "-//W3C//DTD SVG 1.1//EN" "http://www.w3.org/Graphics/SVG/1.1/DTD/svg11.dtd" >
<svg xmlns="http://www.w3.org/2000/svg">
  <metadata>Created by iconfont</metadata>
  <defs>
  <font id="element-icons" horiz-adv-x="1024">
    <font-face
      font-family="element-icons"
      font-weight="400"
      font-stretch="normal"
      units-per-em="1024"
      ascent="896"
      descent="-128"
    />
      <missing-glyph />
      
      <glyph glyph-name="fanhui" unicode="&#59135;" d="M700.371228 501.474528 174.028569 501.474528l255.952416 227.506551c12.389168 11.011798 13.505595 29.980825 2.492774 42.369993-11.011798 12.386098-29.977755 13.506619-42.367947 2.492774L76.425623 495.024629c-6.960529-5.496178-11.434423-14.003945-11.434423-23.561625 0-0.013303 0.001023-0.026606 0.001023-0.039909 0-0.01228-0.001023-0.025583-0.001023-0.037862 0-0.473791 0.01535-0.946558 0.037862-1.418302 0.001023-0.016373 0.001023-0.032746 0.001023-0.049119 0.39295-8.030907 3.992941-15.595186 10.034541-20.962427l315.040163-280.028764c5.717212-5.083785 12.83533-7.580652 19.925818-7.580652 8.274454 0 16.514115 3.403516 22.442128 10.07445 11.011798 12.387122 9.896394 31.357172-2.492774 42.367947l-256.128425 227.665163 526.518668 0c109.219517 0 198.075241-88.855724 198.075241-198.075241s-88.855724-198.075241-198.075241-198.075241L354.324888 45.303045c-16.57449 0-30.011524-13.437034-30.011524-30.011524s13.437034-30.011524 30.011524-30.011524l346.046341 0c142.31631 0 258.098289 115.783003 258.098289 258.098289S842.686515 501.474528 700.371228 501.474528z"  horiz-adv-x="1024" />
      
      <glyph glyph-name="a-2-1" unicode="&#58917;" d="M512 384m-512 0a512 512 0 1 1 1024 0 512 512 0 1 1-1024 0ZM470.72 358.016a15.36 15.36 0 0 0 15.296-15.36v-135.36a15.36 15.36 0 0 0-15.36-15.296H335.36A15.36 15.36 0 0 0 320 207.36V342.656a15.36 15.36 0 0 0 15.36 15.296h135.36z m202.816 0a15.36 15.36 0 0 0 15.296-15.36v-135.36a15.36 15.36 0 0 0-15.36-15.296H538.176a15.36 15.36 0 0 0-15.296 15.36V342.656a15.36 15.36 0 0 0 15.36 15.296h135.36zM616.64 571.52l82.688-82.688a15.36 15.36 0 0 0 0-21.632L616.64 384.512a15.36 15.36 0 0 0-21.632 0L512.32 467.2a15.36 15.36 0 0 0 0 21.632L595.008 571.52a15.36 15.36 0 0 0 21.632 0z m-145.92-10.688a15.36 15.36 0 0 0 15.296-15.36v-135.36a15.36 15.36 0 0 0-15.36-15.296H335.36A15.36 15.36 0 0 0 320 410.24V545.472a15.36 15.36 0 0 0 15.36 15.296h135.36z"  horiz-adv-x="1024" />
      
      <glyph glyph-name="a-1-2" unicode="&#58918;" d="M512 384m-512 0a512 512 0 1 1 1024 0 512 512 0 1 1-1024 0ZM597.312 517.312A5.312 5.312 0 0 1 602.688 512H697.6a28.224 28.224 0 0 1-1.408 1.536l-97.28 97.28a27.2 27.2 0 0 1-1.6 1.472v-94.976zM576 517.312V618.688H346.688A26.688 26.688 0 0 1 320 592v-416a26.688 26.688 0 0 1 26.688-26.688h330.624A26.688 26.688 0 0 1 704 176V490.688H602.688A26.688 26.688 0 0 0 576 517.312zM416 512h85.312a10.688 10.688 0 1 0 0-21.312H416A10.688 10.688 0 0 0 416 512z m192-256h-192a10.688 10.688 0 0 0 0 21.312h192a10.688 10.688 0 1 0 0-21.312z m10.688 117.312a10.688 10.688 0 0 0-10.688-10.624h-192A10.688 10.688 0 0 0 416 384h192a10.688 10.688 0 0 0 10.688-10.688z"  horiz-adv-x="1024" />
      
      <glyph glyph-name="a-2-2" unicode="&#58919;" d="M512 384m-512 0a512 512 0 1 1 1024 0 512 512 0 1 1-1024 0ZM470.72 358.016a15.36 15.36 0 0 0 15.296-15.36v-135.36a15.36 15.36 0 0 0-15.36-15.296H335.36A15.36 15.36 0 0 0 320 207.36V342.656a15.36 15.36 0 0 0 15.36 15.296h135.36z m202.816 0a15.36 15.36 0 0 0 15.296-15.36v-135.36a15.36 15.36 0 0 0-15.36-15.296H538.176a15.36 15.36 0 0 0-15.296 15.36V342.656a15.36 15.36 0 0 0 15.36 15.296h135.36zM616.64 571.52l82.688-82.688a15.36 15.36 0 0 0 0-21.632L616.64 384.512a15.36 15.36 0 0 0-21.632 0L512.32 467.2a15.36 15.36 0 0 0 0 21.632L595.008 571.52a15.36 15.36 0 0 0 21.632 0z m-145.92-10.688a15.36 15.36 0 0 0 15.296-15.36v-135.36a15.36 15.36 0 0 0-15.36-15.296H335.36A15.36 15.36 0 0 0 320 410.24V545.472a15.36 15.36 0 0 0 15.36 15.296h135.36z"  horiz-adv-x="1024" />
      
      <glyph glyph-name="a-3-2" unicode="&#58920;" d="M512 384m-512 0a512 512 0 1 1 1024 0 512 512 0 1 1-1024 0ZM512.128 128C370.688 128 256 163.008 256 206.272c0 30.912 58.56 57.6 143.424 70.4l103.68-96a13.696 13.696 0 0 1 18.048 0l103.68 96c84.928-12.8 143.424-39.36 143.424-70.4 0-43.264-114.688-78.272-256.128-78.272z m6.72 100.608a9.28 9.28 0 0 0-3.072-1.92 10.304 10.304 0 0 0-10.368 1.92S370.368 353.792 369.92 354.304a165.12 165.12 0 0 0-44.928 112.64 145.28 145.28 0 0 0 11.072 65.472c8.768 20.928 22.336 40.064 39.808 56.32 17.536 16.192 38.656 29.056 62.08 37.888A210.56 210.56 0 0 0 512 640c25.472 0 50.688-4.544 74.112-13.376 23.424-8.832 44.48-21.76 62.016-37.888 17.472-16.256 31.04-35.392 39.808-56.32 8.768-20.928 12.544-43.2 11.136-65.472a165.12 165.12 0 0 0-44.992-112.704c-0.32-0.448-131.584-122.24-135.296-125.632z m-6.72 317.44a88.64 88.64 0 0 1-31.104-5.76c-9.792-3.84-18.56-9.28-25.92-16.128a71.04 71.04 0 0 1-23.36-52.48c0.896-13.76 6.4-27.008 15.744-38.016 9.344-11.072 22.208-19.456 36.992-24.192 14.72-4.736 30.784-5.568 46.08-2.368 15.36 3.2 29.248 10.176 40.064 20.16 10.752 9.984 17.984 22.528 20.736 36.096a62.4 62.4 0 0 1-5.376 40.128 73.664 73.664 0 0 1-29.632 30.976 88.96 88.96 0 0 1-44.224 11.584z"  horiz-adv-x="1024" />
      
      <glyph glyph-name="a-1-1" unicode="&#58895;" d="M512 384m-512 0a512 512 0 1 1 1024 0 512 512 0 1 1-1024 0ZM597.312 517.312A5.312 5.312 0 0 1 602.688 512H697.6a28.224 28.224 0 0 1-1.408 1.536l-97.28 97.28a27.2 27.2 0 0 1-1.6 1.472v-94.976zM576 517.312V618.688H346.688A26.688 26.688 0 0 1 320 592v-416a26.688 26.688 0 0 1 26.688-26.688h330.624A26.688 26.688 0 0 1 704 176V490.688H602.688A26.688 26.688 0 0 0 576 517.312zM416 512h85.312a10.688 10.688 0 1 0 0-21.312H416A10.688 10.688 0 0 0 416 512z m192-256h-192a10.688 10.688 0 0 0 0 21.312h192a10.688 10.688 0 1 0 0-21.312z m10.688 117.312a10.688 10.688 0 0 0-10.688-10.624h-192A10.688 10.688 0 0 0 416 384h192a10.688 10.688 0 0 0 10.688-10.688z"  horiz-adv-x="1024" />
      
      <glyph glyph-name="a-3-1" unicode="&#58913;" d="M512 384m-512 0a512 512 0 1 1 1024 0 512 512 0 1 1-1024 0ZM512.128 128C370.688 128 256 163.008 256 206.272c0 30.912 58.56 57.6 143.424 70.4l103.68-96a13.696 13.696 0 0 1 18.048 0l103.68 96c84.928-12.8 143.424-39.36 143.424-70.4 0-43.264-114.688-78.272-256.128-78.272z m6.72 100.608a9.28 9.28 0 0 0-3.072-1.92 10.304 10.304 0 0 0-10.368 1.92S370.368 353.792 369.92 354.304a165.12 165.12 0 0 0-44.928 112.64 145.28 145.28 0 0 0 11.072 65.472c8.768 20.928 22.336 40.064 39.808 56.32 17.536 16.192 38.656 29.056 62.08 37.888A210.56 210.56 0 0 0 512 640c25.472 0 50.688-4.544 74.112-13.376 23.424-8.832 44.48-21.76 62.016-37.888 17.472-16.256 31.04-35.392 39.808-56.32 8.768-20.928 12.544-43.2 11.136-65.472a165.12 165.12 0 0 0-44.992-112.704c-0.32-0.448-131.584-122.24-135.296-125.632z m-6.72 317.44a88.64 88.64 0 0 1-31.104-5.76c-9.792-3.84-18.56-9.28-25.92-16.128a71.04 71.04 0 0 1-23.36-52.48c0.896-13.76 6.4-27.008 15.744-38.016 9.344-11.072 22.208-19.456 36.992-24.192 14.72-4.736 30.784-5.568 46.08-2.368 15.36 3.2 29.248 10.176 40.064 20.16 10.752 9.984 17.984 22.528 20.736 36.096a62.4 62.4 0 0 1-5.376 40.128 73.664 73.664 0 0 1-29.632 30.976 88.96 88.96 0 0 1-44.224 11.584z"  horiz-adv-x="1024" />
      
      <glyph glyph-name="jian" unicode="&#59040;" d="M830.08 341.205333a18.901333 18.901333 0 0 1-22.058667-15.402666 322.901333 322.901333 0 0 0-318.464-266.410667c-178.389333 0-323.498667 145.109333-323.498666 323.498667a323.413333 323.413333 0 0 0 591.701333 180.906666 319.829333 319.829333 0 0 0 50.261333-123.818666 19.072 19.072 0 0 1 37.461334 6.656A356.949333 356.949333 0 0 1 789.333333 585.088a361.301333 361.301333 0 0 1-299.733333 159.36A361.429333 361.429333 0 0 1 128 382.890667c0-199.381333 162.218667-361.557333 361.557333-361.557334a360.874667 360.874667 0 0 1 355.925334 297.770667 19.029333 19.029333 0 0 1-15.36 22.101333M284.16 384a20.138667 20.138667 0 0 1 0-40.277333H720.213333a20.138667 20.138667 0 0 1 0 40.277333H284.16z"  horiz-adv-x="1024" />
      
      <glyph glyph-name="RectangleCopy" unicode="&#59041;" d="M830.122667 322.346667a18.944 18.944 0 0 1-22.058667-15.36 322.901333 322.901333 0 0 0-318.549333-266.709334c-178.346667 0-323.413333 145.152-323.413334 323.498667a323.328 323.328 0 0 0 323.456 323.498667 323.456 323.456 0 0 0 318.378667-266.112 19.029333 19.029333 0 0 1 37.504 6.698666 357.546667 357.546667 0 0 1-56.149333 138.112A361.386667 361.386667 0 0 1 489.514667 725.333333 361.429333 361.429333 0 0 1 128 363.776c0-199.338667 162.176-361.557333 361.514667-361.557333a360.832 360.832 0 0 1 356.010666 298.069333 18.986667 18.986667 0 0 1-15.402666 22.058667M655.786667 532.224a20.181333 20.181333 0 0 1-28.544 0l-139.946667-139.946667-139.946667 139.946667a20.181333 20.181333 0 0 1-28.458666-28.458667l139.946666-139.946666-139.946666-139.946667a20.181333 20.181333 0 0 1 28.458666-28.501333l139.946667 139.946666 139.946667-139.946666a20.053333 20.053333 0 0 1 28.501333 0 20.181333 20.181333 0 0 1 0 28.458666l-139.946667 139.946667 139.946667 139.946667a20.181333 20.181333 0 0 1 0 28.501333"  horiz-adv-x="1024" />
      
      <glyph glyph-name="RectangleCopy1" unicode="&#59042;" d="M837.461333 360.533333a19.072 19.072 0 0 1-22.314666-15.573333 326.314667 326.314667 0 0 0-321.792-269.226667c-180.266667 0-326.912 146.645333-326.912 326.912a326.826667 326.826667 0 0 0 597.930666 182.784 323.157333 323.157333 0 0 0 50.773334-125.056 19.242667 19.242667 0 0 1 37.888 6.698667 360.704 360.704 0 0 1-56.789334 139.946667A365.098667 365.098667 0 0 1 493.312 768 365.226667 365.226667 0 0 1 128 402.645333c0-201.472 163.882667-365.354667 365.354667-365.354666a364.672 364.672 0 0 1 359.68 300.885333 19.2 19.2 0 0 1-15.573334 22.314667M650.538667 506.496l-199.978667-200.021333-119.765333 119.765333a18.816 18.816 0 0 1-26.624-26.581333l132.224-132.181334c0.128-0.170667 0.341333-0.213333 0.469333-0.341333 0.170667-0.170667 0.213333-0.426667 0.426667-0.597333a18.773333 18.773333 0 0 1 26.581333 0l213.290667 213.333333a18.816 18.816 0 0 1-26.624 26.624"  horiz-adv-x="1024" />
      
      <glyph glyph-name="RectangleCopy2" unicode="&#59043;" d="M834.389333 156.458667h-56.917333v170.666666a18.944 18.944 0 1 1-37.930667 0v-170.666666H284.458667V384A227.797333 227.797333 0 0 0 512 611.541333a226.56 226.56 0 0 0 221.44-175.018666 18.986667 18.986667 0 0 1 36.949333 8.746666c-26.965333 113.92-124.074667 194.432-239.445333 202.624v58.453334a18.986667 18.986667 0 0 1-37.888 0V648.533333c-137.557333-9.813333-246.528-124.586667-246.528-264.533333v-227.541333H189.610667a18.986667 18.986667 0 0 1 0-37.973334h644.778666a18.986667 18.986667 0 0 1 0 37.973334M606.805333 80.597333H415.573333a18.986667 18.986667 0 0 1 0-37.930666h191.232a18.986667 18.986667 0 0 1 0 37.930666"  horiz-adv-x="1024" />
      
      <glyph glyph-name="RectangleCopy3" unicode="&#59044;" d="M807.680427 405.333333H509.611093V684.032C662.400427 674.389333 787.968427 557.013333 807.680427 405.333333zM469.33376 386.986667c0-0.341333 0.170667-0.597333 0.213333-0.938667 0-0.298667-0.213333-0.554667-0.213333-0.853333 0-11.093333 9.045333-20.181333 20.181333-20.181334h336a19.413333 19.413333 0 0 1 10.581334 3.456 19.84 19.84 0 0 1 14.08 20.138667C837.248427 577.408 678.86976 725.333333 489.472427 725.333333A20.138667 20.138667 0 0 1 469.33376 705.066667v-318.122667zM829.056427 323.456a19.925333 19.925333 0 0 1-23.381334-16.298667A320.597333 320.597333 0 0 0 489.515093 42.666667c-177.152 0-321.237333 144.085333-321.237333 321.152a319.573333 319.573333 0 0 0 226.730667 307.114666 20.053333 20.053333 0 0 1 13.312 25.173334 20.010667 20.010667 0 0 1-25.173334 13.312 359.637333 359.637333 0 0 1-255.146666-345.6c0-199.338667 162.176-361.472 361.472-361.472a360.917333 360.917333 0 0 1 355.882666 297.728 20.181333 20.181333 0 0 1-16.298666 23.381333"  horiz-adv-x="1024" />
      
      <glyph glyph-name="RectangleCopy4" unicode="&#59045;" d="M676.394667 463.104a21.333333 21.333333 0 0 1-30.165334 0l-135.168-135.125333-133.333333 133.376a21.333333 21.333333 0 0 1-30.165333-30.165334l148.394666-148.48a21.418667 21.418667 0 0 1 30.208 0l150.229334 150.186667a21.333333 21.333333 0 0 1 0 30.208"  horiz-adv-x="1024" />
      
      <glyph glyph-name="RectangleCopy5" unicode="&#59046;" d="M676.441173 270.208L526.169173 420.437333a21.418667 21.418667 0 0 1-30.208 0L347.566507 272a21.418667 21.418667 0 0 1 15.061333-36.437333 21.418667 21.418667 0 0 1 15.146667 6.229333l133.333333 133.376 135.125333-135.125333a21.248 21.248 0 0 1 30.208 0 21.333333 21.333333 0 0 1 0 30.165333"  horiz-adv-x="1024" />
      
      <glyph glyph-name="RectangleCopy6" unicode="&#59047;" d="M554.666667 490.666667c0-35.285333-28.714667-64-64-64S426.666667 455.381333 426.666667 490.666667 455.381333 554.666667 490.666667 554.666667s64-28.714667 64-64m-170.666667 0c0-58.837333 47.872-106.666667 106.666667-106.666667S597.333333 431.829333 597.333333 490.666667 549.461333 597.333333 490.666667 597.333333A106.794667 106.794667 0 0 1 384 490.666667M717.952 506.752c1.664-6.4 2.986667-12.970667 4.138667-19.584a21.333333 21.333333 0 1 1 42.069333 7.082667A277.162667 277.162667 0 0 1 490.666667 725.333333 277.674667 277.674667 0 0 1 213.333333 448c0-146.005333 113.493333-265.770667 256.853334-276.309333V85.333333H345.856a21.333333 21.333333 0 1 1 0-42.666666h298.666667a21.333333 21.333333 0 0 1 0 42.666666H512.853333v87.082667c108.16 8.789333 202.752 79.616 239.317334 183.125333a21.333333 21.333333 0 1 1-40.192 14.250667A235.221333 235.221333 0 0 0 490.666667 213.333333 234.965333 234.965333 0 0 0 256 448C256 577.365333 361.301333 682.666667 490.666667 682.666667a234.496 234.496 0 0 0 227.285333-175.914667"  horiz-adv-x="1024" />
      
      <glyph glyph-name="RectangleCopy7" unicode="&#59048;" d="M871.722667 323.498667a19.968 19.968 0 0 1-23.381334-16.298667 320.64 320.64 0 0 0-316.16-264.533333C354.986667 42.666667 210.901333 186.709333 210.901333 363.861333A321.152 321.152 0 0 0 532.138667 685.056a321.066667 321.066667 0 0 0 316.202666-264.448 20.181333 20.181333 0 0 1 39.68 7.082667 357.504 357.504 0 0 1-56.192 138.368A361.301333 361.301333 0 0 1 532.138667 725.333333 361.386667 361.386667 0 0 1 170.666667 363.861333C170.666667 164.522667 332.842667 2.389333 532.138667 2.389333a360.917333 360.917333 0 0 1 355.882666 297.728 20.181333 20.181333 0 0 1-16.298666 23.381334M531.712 111.658667a21.333333 21.333333 0 0 1 21.333333 21.333333v209.493333h209.536a21.333333 21.333333 0 0 1 0 42.666667h-209.493333V594.773333a21.333333 21.333333 0 0 1-42.666667 0v-209.578666H300.8a21.333333 21.333333 0 0 1 0-42.666667h209.578667v-209.536a21.333333 21.333333 0 0 1 21.333333-21.333333"  horiz-adv-x="1024" />
      
      <glyph glyph-name="RectangleCopy8" unicode="&#59049;" d="M676.44928 207.957333L542.17728 342.186667 675.510613 475.562667a21.290667 21.290667 0 0 1 0 30.165333 21.290667 21.290667 0 0 1-30.165333 0L512.011947 372.394667 378.635947 505.728a21.333333 21.333333 0 1 1-30.208-30.165333L481.846613 342.186667 347.574613 207.957333a21.333333 21.333333 0 0 1 30.208-30.165333L512.011947 312.021333l134.229333-134.229333a21.248 21.248 0 0 1 30.208 0 21.333333 21.333333 0 0 1 0 30.165333"  horiz-adv-x="1024" />
      
      <glyph glyph-name="RectangleCopy9" unicode="&#59050;" d="M871.722667 323.456a20.053333 20.053333 0 0 1-23.381334-16.298667A320.597333 320.597333 0 0 0 532.138667 42.666667c-177.109333 0-321.194667 144.085333-321.194667 321.194666a321.109333 321.109333 0 0 0 587.52 179.584c10.410667-15.402667 19.584-31.872 27.178667-48.938666 4.522667-10.154667 16.384-14.762667 26.581333-10.154667a19.797333 19.797333 0 0 1 10.069333 10.24 19.84 19.84 0 0 1 2.901334 9.813333V623.189333a20.181333 20.181333 0 0 1-40.32 0v-48.170666a360.789333 360.789333 0 0 1-592.554667-9.173334A359.68 359.68 0 0 1 170.666667 363.861333c0-199.338667 162.176-361.472 361.472-361.472a360.874667 360.874667 0 0 1 355.882666 297.685334 20.181333 20.181333 0 0 1-16.298666 23.381333"  horiz-adv-x="1024" />
      
      <glyph glyph-name="RectangleCopy10" unicode="&#59051;" d="M829.525333 383.104a21.333333 21.333333 0 0 1 21.333334 21.333333V682.325333C850.858667 729.557333 813.653333 768 767.829333 768H422.4a21.162667 21.162667 0 0 1-15.146667-6.4c-0.298667-0.256-0.682667-0.341333-0.938666-0.597333L259.754667 614.442667a21.077333 21.077333 0 0 1-5.973334-16.085334c-0.085333-0.341333-0.256-0.64-0.256-1.024v-512.554666c0-47.232 37.248-85.674667 83.029334-85.674667h431.274666c45.781333 0 83.029333 38.442667 83.029334 85.674667v191.658666a21.333333 21.333333 0 0 1-42.666667 0v-191.658666c0-23.722667-18.090667-43.008-40.362667-43.008H336.554667c-22.272 0-40.362667 19.285333-40.362667 43.008V590.549333L431.018667 725.333333h336.853333c22.229333 0 40.32-19.285333 40.32-43.008v-277.888a21.333333 21.333333 0 0 1 21.333333-21.333333M445.525333 490.666667h213.333334a21.333333 21.333333 0 0 1 0 42.666666h-213.333334a21.333333 21.333333 0 0 1 0-42.666666M445.525333 362.666667h213.333334a21.333333 21.333333 0 0 1 0 42.666666h-213.333334a21.333333 21.333333 0 0 1 0-42.666666M447.317333 234.666667h213.333334a21.333333 21.333333 0 0 1 0 42.666666h-213.333334a21.333333 21.333333 0 0 1 0-42.666666"  horiz-adv-x="1066" />
      
      <glyph glyph-name="RectangleCopy11" unicode="&#59052;" d="M762.651364 174.374887l-244.51961 75.945717 334.929146 381.136569-90.452202-457.082286zM902.041621 721.013387a21.333067 21.333067 0 0 1-22.485052 2.005309L155.981614 357.967259a21.333067 21.333067 0 1 1 2.986629-39.338175L387.488053 244.048683a21.333067 21.333067 0 1 1 13.226502 40.532826L221.388796 343.204777l577.699446 291.40969-334.715816-380.79524 0.426661-0.426661a20.906405 20.906405 0 0 1-5.759928-13.653163l-0.085332-176.339129a21.333067 21.333067 0 0 1 42.666133 0l0.085332 147.368825 270.929947-84.180281a21.418399 21.418399 0 0 1 27.263659 16.21313L910.148187 699.850985a21.546397 21.546397 0 0 1-8.106566 21.162402z"  horiz-adv-x="1040" />
      
      <glyph glyph-name="RectangleCopy12" unicode="&#59053;" d="M852.650667 640H210.901333a21.333333 21.333333 0 0 1 0-42.666667h66.858667v-442.624A113.493333 113.493333 0 0 1 390.954667 41.386667h284.8a113.450667 113.450667 0 0 1 113.28 113.322666V275.584a21.333333 21.333333 0 1 1-42.666667 0v-120.874667c0-38.954667-31.658667-70.656-70.613333-70.656H390.954667a70.741333 70.741333 0 0 0-70.613334 70.656V597.333333h426.069334v-190.208a21.333333 21.333333 0 0 1 42.666666 0V597.333333h63.573334a21.333333 21.333333 0 0 1 0 42.666667M442.88 682.666667h187.818667a21.333333 21.333333 0 1 1 0 42.666666H442.88a21.333333 21.333333 0 0 1 0-42.666666M426.922667 490.666667v-298.666667a21.333333 21.333333 0 0 1 42.666666 0v298.666667a21.333333 21.333333 0 0 1-42.666666 0M597.589333 490.666667v-298.666667a21.333333 21.333333 0 0 1 42.666667 0v298.666667a21.333333 21.333333 0 0 1-42.666667 0"  horiz-adv-x="1066" />
      
      <glyph glyph-name="RectangleCopy13" unicode="&#59054;" d="M192 86.528a21.333333 21.333333 0 0 0-19.029333 30.976l183.552 363.52a21.333333 21.333333 0 1 0 38.101333-19.285333l-183.594667-363.52a21.333333 21.333333 0 0 0-19.029333-11.690667M551.68 101.546667a21.248 21.248 0 0 0-18.986667 11.690666l-176.128 348.501334a21.333333 21.333333 0 1 0 38.058667 19.285333l176.128-348.501333a21.333333 21.333333 0 0 0-19.029333-31.018667M551.68 101.546667a21.290667 21.290667 0 0 0-18.176 32.426666l269.781333 442.154667a21.333333 21.333333 0 1 0 36.437334-22.186667L569.941333 111.786667a21.290667 21.290667 0 0 0-18.218666-10.24M641.706667 501.248a21.290667 21.290667 0 0 0-6.144 41.813333l179.626666 53.376a21.290667 21.290667 0 1 0 12.16-40.874666L647.765333 502.186667a21.76 21.76 0 0 0-6.101333-0.853334M874.666667 375.082667a21.290667 21.290667 0 0 0-20.437334 15.232L800.853333 569.898667a21.333333 21.333333 0 0 0 40.96 12.202666l53.333334-179.626666a21.333333 21.333333 0 0 0-20.437334-27.392"  horiz-adv-x="1024" />
      
      <glyph glyph-name="RectangleCopy14" unicode="&#59055;" d="M222.464 237.653333l137.813333 134.613334 157.738667-196.693334a21.333333 21.333333 0 1 1 33.28 26.624l-32.938667 41.088 100.778667 84.48 183.466667-218.154666a49.194667 49.194667 0 0 0-41.813334-24.277334H263.253333A49.92 49.92 0 0 0 213.333333 135.253333v97.365334a20.736 20.736 0 0 1 9.130667 4.992M832 426.24a21.333333 21.333333 0 0 1 21.333333 21.333333V632.789333a92.629333 92.629333 0 0 1-92.544 92.586667H263.253333A92.629333 92.629333 0 0 1 170.666667 632.746667V135.253333A92.586667 92.586667 0 0 1 263.253333 42.666667H760.746667a92.586667 92.586667 0 0 1 92.586666 92.586666V319.573333a21.333333 21.333333 0 0 1-42.666666 0v-153.173333l-172.586667 205.141333c-0.853333 1.024-2.048 1.578667-2.986667 2.389334-1.237333 0.981333-2.346667 2.176-3.669333 2.858666-0.128 0.085333-0.298667 0.085333-0.426667 0.128a20.906667 20.906667 0 0 1-22.997333-2.816l-116.352-97.536-112.810667 140.8c-0.256 0.256-0.597333 0.341333-0.810666 0.64-0.256 0.256-0.341333 0.64-0.597334 0.896-0.810667 0.853333-1.834667 1.194667-2.688 1.834667-1.152 0.853333-2.133333 1.749333-3.413333 2.304-1.28 0.64-2.56 0.896-3.968 1.28-1.28 0.298667-2.517333 0.682667-3.84 0.768-1.450667 0.085333-2.773333-0.170667-4.181333-0.341333-1.28-0.170667-2.56-0.256-3.84-0.682667-1.408-0.426667-2.645333-1.28-3.925334-2.048-0.853333-0.512-1.92-0.725333-2.730666-1.408-0.298667-0.213333-0.384-0.554667-0.64-0.768-0.298667-0.256-0.682667-0.341333-0.938667-0.597333L213.333333 288.341333V632.789333A49.92 49.92 0 0 0 263.253333 682.709333H760.746667c27.477333 0 49.92-22.442667 49.92-49.92V447.573333a21.333333 21.333333 0 0 1 21.333333-21.333333M704.426667 553.344a22.229333 22.229333 0 1 0 0.042666 44.458667 22.229333 22.229333 0 0 0 0-44.458667m0 87.125333c-35.84 0-64.896-29.141333-64.896-64.896 0-35.84 29.098667-64.896 64.853334-64.896 35.797333 0 64.938667 29.098667 64.938666 64.853334 0 35.797333-29.141333 64.938667-64.896 64.938666"  horiz-adv-x="1024" />
      
      <glyph glyph-name="RectangleCopy15" unicode="&#59058;" d="M782.762667 634.624l-327.68-372.906667-249.941334 81.493334 577.621334 291.413333z m-278.357334-385.621333l-2.901333 0.938666 334.165333 380.16-54.741333-261.888a21.290667 21.290667 0 1 1 41.728-8.746666l71.125333 340.138666a21.290667 21.290667 0 0 1-30.506666 23.424L139.733333 357.973333a21.333333 21.333333 0 0 1 2.986667-39.296l300.032-97.792-0.042667-157.482666a21.333333 21.333333 0 1 1 42.666667 0l0.085333 146.901333 5.717334-1.834667a21.290667 21.290667 0 1 1 13.226666 40.533334zM704 255.146667a64 64 0 1 1 0.042667-128 64 64 0 0 1-0.042667 128M704 84.48a106.794667 106.794667 0 0 0-106.666667 106.666667c0 58.837333 47.829333 106.666667 106.666667 106.666666 58.88 0 106.666667-47.829333 106.666667-106.666666 0-58.752-47.786667-106.666667-106.666667-106.666667m0 256c-82.346667 0-149.333333-66.986667-149.333333-149.333333s66.986667-149.333333 149.333333-149.333334 149.333333 66.986667 149.333333 149.333334-66.986667 149.333333-149.333333 149.333333"  horiz-adv-x="1024" />
      
      <glyph glyph-name="zip1" unicode="&#58916;" d="M0 896m93.090909 0l837.818182 0q93.090909 0 93.090909-93.090909l0-837.818182q0-93.090909-93.090909-93.090909l-837.818182 0q-93.090909 0-93.090909 93.090909l0 837.818182q0 93.090909 93.090909 93.090909ZM0 393.309091m93.090909 0l837.818182 0q93.090909 0 93.090909-93.090909l0-335.127273q0-93.090909-93.090909-93.090909l-837.818182 0q-93.090909 0-93.090909 93.090909l0 335.127273q0 93.090909 93.090909 93.090909ZM0 570.181818h1024v-372.363636H0zM409.6 896h204.8v-1024H409.6zM409.6 449.163636v-148.945454h204.8V449.163636H409.6z m-37.236364 55.854546a18.618182 18.618182 0 0 1-18.618181-18.618182v-223.418182a18.618182 18.618182 0 0 1 18.618181-18.618182h279.272728a18.618182 18.618182 0 0 1 18.618181 18.618182V486.4a18.618182 18.618182 0 0 1-18.618181 18.618182H372.363636zM409.6 449.163636h204.8v-148.945454H409.6z"  horiz-adv-x="1024" />
      
      <glyph glyph-name="a-yonghu-hei1" unicode="&#58914;" d="M499.742118 714.962824c-97.28-5.722353-177.377882-84.976941-183.913412-182.211765-7.363765-114.371765 82.552471-209.965176 195.358118-209.965177 108.709647 0 196.171294 88.244706 196.171294 196.080942 0.813176 112.760471-93.997176 202.631529-207.616 196.096zM512 289.174588c-130.785882 0-391.529412-65.355294-391.529412-196.096v-98.032941C120.470588-22.949647 135.183059-37.647059 153.163294-37.647059H870.851765A32.783059 32.783059 0 0 1 903.529412-4.969412v98.861177c0 129.912471-260.743529 195.282824-391.529412 195.282823zM195.764706 790.588235a90.352941 90.352941 0 0 1-90.352941-90.352941v-632.470588a90.352941 90.352941 0 0 1 90.352941-90.352941h632.470588a90.352941 90.352941 0 0 1 90.352941 90.352941V700.235294a90.352941 90.352941 0 0 1-90.352941 90.352941H195.764706zM15.058824 700.235294C15.058824 800.030118 95.969882 880.941176 195.764706 880.941176h632.470588c99.794824 0 180.705882-80.911059 180.705882-180.705882v-632.470588c0-99.794824-80.911059-180.705882-180.705882-180.705882H195.764706C95.969882-112.941176 15.058824-32.030118 15.058824 67.764706V700.235294z"  horiz-adv-x="1024" />
      
      <glyph glyph-name="hecharenwufenxi" unicode="&#58915;" d="M512 384m-333.108434 0a333.108434 333.108434 0 1 1 666.216868 0 333.108434 333.108434 0 1 1-666.216868 0ZM931.46988 384c0-231.664578-187.805301-419.46988-419.46988-419.46988s-419.46988 187.805301-419.46988 419.46988 187.805301 419.46988 419.46988 419.46988 419.46988-187.805301 419.46988-419.46988z m-419.46988-394.795181c218.037976 0 394.795181 176.757205 394.795181 394.795181 0 218.037976-176.757205 394.795181-394.795181 394.795181-218.037976 0-394.795181-176.757205-394.795181-394.795181 0-218.037976 176.757205-394.795181 394.795181-394.795181zM1024 384c0-282.772048-229.227952-512-512-512S0 101.227952 0 384 229.227952 896 512 896s512-229.227952 512-512z m-512-487.325301c269.139277 0 487.325301 218.186024 487.325301 487.325301S781.139277 871.325301 512 871.325301 24.674699 653.139277 24.674699 384s218.186024-487.325301 487.325301-487.325301z"  horiz-adv-x="1024" />
      
      <glyph glyph-name="xiadie" unicode="&#58882;" d="M866.752 133.824l-20.48 170.816a7.04 7.04 0 0 1-4.608 5.568 6.976 6.976 0 0 1-7.04-1.536l-50.88-51.2-232.576 232.576a14.272 14.272 0 0 1-19.392 0l-87.04-87.04L207.36 640a6.976 6.976 0 0 1-9.472 0l-38.784-38.784a6.976 6.976 0 0 1 0-9.472L434.816 315.52a13.568 13.568 0 0 1 19.392 0l87.424 87.424 193.856-193.856-50.88-50.816a7.04 7.04 0 0 1 0.64-10.176 7.04 7.04 0 0 1 3.392-1.536l170.432-20.48a6.592 6.592 0 0 1 7.68 7.68z"  horiz-adv-x="1024" />
      
      <glyph glyph-name="dierming" unicode="&#58886;" d="M552.8 363.52L340.8-27.616l-23.68 41.696-0.736 1.184-25.376 45.696-32.096 56.8-65.12-4.16-52-3.328-49.088-3.296 211.808 391.104 212.384-115.104 35.904-19.52zM380.192 457.216L193.792 113.6l-52-3.296 199.392 367.904 39.04-20.992z m135.904-73.824l-199.68-368-25.408 45.504 186.08 343.808 39.04-21.312zM931.616 107.008l-48.32 3.2-1.088 0.096-52 3.296-65.12 4.192-31.872-56.8-25.6-45.696-24.224-42.88-212 391.072 212.32 115.2 35.776 19.424 212.096-391.104zM644 457.216l186.208-343.616 52-3.296-199.2 367.904-39.008-20.992z m-135.904-73.824l199.52-368 25.6 45.504-186.304 343.808-38.816-21.312zM206.4 490.112a305.504 305.504 0 1 1 611.008 0 305.504 305.504 0 0 1-611.008 0zM511.904 745.088a254.816 254.816 0 0 1-254.816-254.784c0-140.608 114.016-255.008 254.816-255.008s254.784 114.208 254.784 254.816c0 140.576-113.792 254.976-254.784 254.976z m0-454.592a199.968 199.968 0 0 0-199.904 199.904 199.52 199.52 0 0 0 199.904 199.616 199.968 199.968 0 0 0 199.904-199.904c0-110.528-89.696-199.616-199.904-199.616zM288.608 281.696c2.88-3.104 3.52-7.808 1.504-11.616L202.56 108.928a9.92 9.92 0 0 0-8.192-5.184l-52-3.328c-0.192-0.096-0.416-0.096-0.608-0.096a10.08 10.08 0 0 0-8.8 14.816l109.408 201.92a10.016 10.016 0 0 0 8.32 5.184 10.176 10.176 0 0 0 8.768-4.32l1.504-8.48-101.792-187.904 28.384 1.792 89.504 164.992 11.52-6.592z m126.208-81.504c2.784-0.896 5.088-3.104 6.08-5.792a10.304 10.304 0 0 0-0.512-8.416l-95.2-175.36a10.016 10.016 0 1 0-17.504-0.096l-25.376 45.44a9.792 9.792 0 0 0 0.096 9.824l79.392 146.688a10.016 10.016 0 0 0 13.312 4.224l6.4-9.504-79.104-146.208 13.888-24.8 88.896 164h9.6z m334.08 84.608l87.52-161.6 28.48-1.792-100.288 185.088-0.096 11.616a9.92 9.92 0 0 0 8.8 4.288 10.24 10.24 0 0 0 8.288-5.216l109.408-202.08c1.696-3.2 1.6-7.104-0.416-10.112a9.728 9.728 0 0 0-8.384-4.704h-0.64l-51.968 3.296a10.24 10.24 0 0 0-8.192 5.216l-87.52 161.408a10.016 10.016 0 0 0 1.504 11.584l13.504 3.008z m-99.904-68a10.016 10.016 0 0 0 13.312-4.192l79.68-147.008c1.6-3.008 1.728-6.72 0-9.696l-25.6-45.504a10.336 10.336 0 0 0-8.8-4.992s-0.096 0 0 0a9.92 9.92 0 0 0-8.768 5.184l-95.104 175.52a9.984 9.984 0 0 0 5.6 14.208l10.688-2.336 87.68-161.888 14.016 24.896-78.4 144.704 5.696 11.104zM579.104 185.6l104.48-192.608 15.328 27.2 25.6 45.6c0 0.096 0.096 0.096 0.096 0.224l31.808 56.672a10.016 10.016 0 0 0 9.376 5.12l65.12-4.192 52-3.328h0.288l0.992-0.096 30.08-1.984-125.888 231.808-0.288 9.184a9.984 9.984 0 0 0 8.8 5.696 10.016 10.016 0 0 0 9.12-5.184l134.4-247.904a10.08 10.08 0 0 0-9.504-14.816l-48.32 3.2h-0.192l-0.992 0.096-51.904 3.328-58.816 3.776-28.8-51.296c0-0.096-0.096-0.096-0.096-0.192l-25.504-45.504-24.192-42.88a9.92 9.92 0 0 0-8.704-5.12s-0.096 0 0 0a9.92 9.92 0 0 0-8.8 5.216l-112.576 207.68a10.08 10.08 0 0 0 6.976 14.592l10.112-4.288zM236.096 350.912l-125.984-232.704 30.976 2.112 52 3.296 65.12 4.16a10.112 10.112 0 0 0 9.408-5.088l32.096-56.672c0-0.096 0.096-0.096 0.096-0.224l25.28-45.6 0.64-1.088s0-0.096 0.064-0.096l14.816-26.016 105.696 195.008 8.896 1.792a10.048 10.048 0 0 0 7.008-14.592l-112.608-207.584a9.92 9.92 0 0 0-8.704-5.216h-0.096a9.92 9.92 0 0 0-8.704 5.12l-24.32 42.784-0.064 0.192-25.312 45.504s0 0.096-0.096 0.096l-28.992 51.296-58.816-3.776-52-3.328-49.088-3.296a10.08 10.08 0 0 0-9.504 14.784l134.08 247.616a9.824 9.824 0 0 0 9.12 5.216 9.984 9.984 0 0 0 8.8-5.696l0.192-8zM511.904 174.592a313.376 313.376 0 0 0-223.104 92.416 313.376 313.376 0 0 0-92.416 223.104 313.376 313.376 0 0 0 92.416 223.104 313.376 313.376 0 0 0 223.104 92.384 313.376 313.376 0 0 0 223.104-92.384 313.376 313.376 0 0 0 92.384-223.104 313.376 313.376 0 0 0-92.384-223.104 313.376 313.376 0 0 0-223.104-92.416z m0 611.008c-78.912 0-153.088-30.72-208.992-86.496a293.12 293.12 0 0 1-86.528-208.992c0-79.04 30.72-153.12 86.528-209.024a293.536 293.536 0 0 1 208.96-86.496c79.04 0 153.12 30.72 209.024 86.496a293.568 293.568 0 0 1 86.496 209.024c0 78.976-30.72 153.088-86.496 208.96a293.888 293.888 0 0 1-208.992 86.528zM511.904 225.28c-146.016 0-264.8 118.912-264.8 265.024 0 70.72 27.52 137.184 77.504 187.2a263.168 263.168 0 0 0 187.296 77.6c70.784 0 137.28-27.616 187.392-77.696a263.712 263.712 0 0 0 77.408-187.296c0-70.72-27.52-137.216-77.504-187.2a263.36 263.36 0 0 0-187.296-77.6z m0 509.824a243.264 243.264 0 0 1-173.12-71.68 243.264 243.264 0 0 1-71.68-173.12c0-135.104 109.792-244.992 244.8-244.992a243.264 243.264 0 0 1 173.12 71.68 243.264 243.264 0 0 1 71.68 173.12 243.552 243.552 0 0 1-71.616 173.184 243.008 243.008 0 0 1-173.184 71.808z m0-454.592a210.176 210.176 0 0 0-209.92 209.888c0 56.096 21.824 108.8 61.44 148.288a208.832 208.832 0 0 0 148.48 61.312 210.176 210.176 0 0 0 209.92-209.92 208 208 0 0 0-61.632-148.288 208.704 208.704 0 0 0-148.288-61.28z m0 399.488A188.928 188.928 0 0 1 377.6 624.64a188.48 188.48 0 0 1-55.616-134.208 190.144 190.144 0 0 1 189.92-189.888 189.056 189.056 0 0 1 134.208 55.36 188.16 188.16 0 0 1 55.68 134.24 190.144 190.144 0 0 1-189.888 189.888zM445.952 398.08h132.096v38.4h-35.072c-8.448 0-21.504-1.28-30.976-2.56 29.184 29.44 57.344 65.536 57.344 98.304 0 36.352-25.6 59.904-62.464 59.904-27.136 0-44.544-9.728-63.232-29.44l24.832-24.576c8.96 9.728 19.2 18.432 32.256 18.432 15.104 0 24.832-9.472 24.832-26.88 0-27.648-32-62.208-79.616-105.472v-26.112z"  horiz-adv-x="1024" />
      
      <glyph glyph-name="weifankuishuliang" unicode="&#58888;" d="M457.778361-97.229639H170.420459A103.390426 103.390426 0 0 0 67.147541 6.043279V780.422295A103.407213 103.407213 0 0 0 170.420459 883.695213H745.169836a103.407213 103.407213 0 0 0 103.272918-103.272918v-382.75777a34.413115 34.413115 0 1 0-68.843016 0V780.422295a34.413115 34.413115 0 0 1-34.429902 34.413115H170.420459a34.413115 34.413115 0 0 1-34.413115-34.413115v-774.379016a34.413115 34.413115 0 0 1 34.413115-34.413115H457.778361a34.413115 34.413115 0 1 0 0-68.859803z m147.959606 189.691803a28.688787 28.688787 0 1 1 57.377574 0 28.688787 28.688787 0 0 1-57.377574 0z m46.34859 494.625574H260.414951a34.429902 34.429902 0 0 0 0 68.859803h391.70518c19.002754 0 20.647869-15.427148 20.647869-34.413115 0-19.019541-1.645115-34.429902-20.647869-34.429901z m1.72905-189.423213H262.127213a34.413115 34.413115 0 0 0 0 68.843016h391.688394c19.019541 0 20.647869-15.410361 20.647868-34.413115 0-19.019541-1.628328-34.429902-20.647868-34.429901zM456.267541 195.382557H262.127213a34.413115 34.413115 0 0 0 0 68.859804h194.123541a34.413115 34.413115 0 0 0 0-68.843017zM721.836066-123.803279c-122.34282 0-221.855475 99.512656-221.855476 221.838689s99.512656 221.855475 221.838689 221.855475c122.34282 0 221.855475-99.529443 221.855475-221.855475 0-122.326033-99.54623-221.838689-221.855475-221.838689z m0 386.31659c-90.665967 0-164.477902-73.778361-164.477902-164.477901 0-90.682754 73.778361-164.461115 164.461115-164.461115 90.699541 0 164.477902 73.778361 164.477901 164.461115 0 90.682754-73.778361 164.477902-164.477901 164.477901zM698.082623 72.183607a28.705574 28.705574 0 1 0 40.573902 40.573901 28.705574 28.705574 0 0 0-40.573902-40.573901zM782.017049 72.183607a28.705574 28.705574 0 1 0 40.573902 40.573901 28.705574 28.705574 0 0 0-40.573902-40.573901z"  horiz-adv-x="1024" />
      
      <glyph glyph-name="tianjiawenjian-lan" unicode="&#58889;" d="M0.273067 773.12C2.935467 805.751467 24.016213 843.188907 54.613333 868.693333c32.768 27.306667 61.44 27.306667 122.88 27.306667 88.746667 0 139.810133-3.97312 177.493334-34.133333 34.133333-27.306667 88.746667-75.093333 102.4-88.746667H1024a81.92 81.92 0 0 0 81.92-81.92v-737.28a81.92 81.92 0 0 0-81.92-81.92H81.92a81.92 81.92 0 0 0-81.92 81.92V773.12h0.273067zM199.789227 553.260373A81.92 81.92 0 0 0 277.504 609.28h946.858667c55.924053 0 95.409493-54.777173 77.728426-107.820373l-191.146666-573.44A81.92 81.92 0 0 0 1033.216-128H86.357333C30.43328-128-9.05216-73.222827 8.628907-20.179627l191.146666 573.44zM450.56 281.6m54.613333 0l327.68 0q54.613333 0 54.613334-54.613333l0 0q0-54.613333-54.613334-54.613334l-327.68 0q-54.613333 0-54.613333 54.613334l0 0q0 54.613333 54.613333 54.613333ZM614.4 8.533333m0 54.613334l0 327.68q0 54.613333 54.613333 54.613333l0 0q54.613333 0 54.613334-54.613333l0-327.68q0-54.613333-54.613334-54.613334l0 0q-54.613333 0-54.613333 54.613334Z"  horiz-adv-x="1338" />
      
      <glyph glyph-name="moxingzongshu-3" unicode="&#58891;" d="M0 896m27.2831 0l1466.466599 0q27.2831 0 27.2831-27.2831l0-593.407414q0-27.2831-27.2831-27.2831l-1466.466599 0q-27.2831 0-27.2831 27.2831l0 593.407414q0 27.2831 27.2831 27.2831ZM1456.371853 253.026014h-402.698549c-11.186071 0-22.372142 11.186071-22.372142 24.241034v425.070691c0 13.048142 11.186071 24.234213 22.372142 24.234213h39.151247v-24.234213c0-26.103105 20.51007-48.475247 46.606355-48.475247 26.103105 0 46.613176 22.372142 46.613176 48.475247V726.571952h22.372141v-24.234213c0-26.103105 20.503249-48.475247 46.606355-48.475247 26.103105 0 46.606355 22.372142 46.606355 48.475247V726.571952h22.372142v-24.234213c0-26.103105 20.51007-48.475247 46.613175-48.475247 26.096285 0 46.606355 22.372142 46.606355 48.475247V726.571952h39.151248c13.048142 0 22.372142-11.186071 22.372141-24.234213v-425.070691c0-13.054963-11.186071-24.241034-22.372141-24.241034z m-63.385461 333.720053h-275.927627c-13.048142 0-22.372142-11.186071-22.372142-24.234213 0-13.054963 11.186071-24.241034 22.372142-24.241034H1394.848463c13.048142 0 22.372142 11.186071 22.372142 24.241034 0 13.048142-11.186071 24.234213-24.234213 24.234213z m0-106.267673h-275.927627c-13.048142 0-22.372142-11.186071-22.372142-24.234213 0-13.054963 11.186071-24.241034 22.372142-24.241034H1394.848463c13.048142 0 22.372142 11.186071 22.372142 24.241034 0 14.910214-11.186071 24.234213-24.234213 24.234213z m5.593035-104.405601h-287.113698c-11.186071 0-18.641178-9.317178-18.641178-20.503249 0-11.186071 9.323999-20.51007 18.641178-20.51007h285.244806c11.186071 0 18.647999 9.323999 18.647998 20.51007 1.862072 11.186071-7.461928 20.503249-16.779106 20.503249z m-27.965177 300.16184c-13.054963 0-22.372142 11.186071-22.372142 24.234213v50.337319c0 13.054963 9.317178 24.241034 22.372142 24.241034 13.048142 0 22.372142-11.186071 22.372142-24.241034v-48.468426c0-14.917035-9.323999-26.103105-22.372142-26.103106z m-115.591672 0c-13.048142 0-22.372142 11.186071-22.372141 24.234213v50.337319c0 13.054963 9.323999 24.241034 22.372141 24.241034 13.048142 0 22.372142-11.186071 22.372142-24.241034v-48.468426c0-14.917035-9.323999-26.103105-22.372142-26.103106z m-115.591672 0c-13.048142 0-22.372142 11.186071-22.372141 24.234213v50.337319c0 13.054963 9.323999 24.241034 22.372141 24.241034 13.054963 0 22.372142-11.186071 22.372142-24.241034v-48.468426c0-14.917035-9.317178-26.103105-22.372142-26.103106z"  horiz-adv-x="2425" />
      
      <glyph glyph-name="diyiming" unicode="&#58892;" d="M552.8 363.52L340.8-27.616l-23.68 41.696-0.736 1.184-25.376 45.696-32.096 56.8-65.12-4.16-52-3.328-49.088-3.296 211.808 391.104 212.384-115.104 35.904-19.52zM380.192 457.216L193.792 113.6l-52-3.296 199.392 367.904 39.04-20.992z m135.904-73.824l-199.68-368-25.408 45.504 186.08 343.808 39.04-21.312zM683.904-27.392l81.6 145.504 166.496-10.912-212.288 391.104-248.096-134.592 212.288-391.104zM931.616 107.008l-48.32 3.2-1.088 0.096-52 3.296-65.12 4.192-31.872-56.8-25.6-45.696-24.224-42.88-212 391.072 212.32 115.2 35.776 19.424 212.096-391.104zM644 457.216l186.208-343.616 52-3.296-199.2 367.904-39.008-20.992z m-135.904-73.824l199.52-368 25.6 45.504-186.304 343.808-38.816-21.312zM206.4 490.112a305.504 305.504 0 1 1 611.008 0 305.504 305.504 0 0 1-611.008 0zM511.904 745.088a254.816 254.816 0 0 1-254.816-254.784c0-140.608 114.016-255.008 254.816-255.008s254.784 114.208 254.784 254.816c0 140.576-113.792 254.976-254.784 254.976z m0-454.592a199.968 199.968 0 0 0-199.904 199.904 199.52 199.52 0 0 0 199.904 199.616 199.968 199.968 0 0 0 199.904-199.904c0-110.528-89.696-199.616-199.904-199.616zM288.608 281.696c2.88-3.104 3.52-7.808 1.504-11.616L202.56 108.928a9.92 9.92 0 0 0-8.192-5.184l-52-3.328c-0.192-0.096-0.416-0.096-0.608-0.096a10.08 10.08 0 0 0-8.8 14.816l109.408 201.92a10.016 10.016 0 0 0 8.32 5.184 10.176 10.176 0 0 0 8.768-4.32l1.504-8.48-101.792-187.904 28.384 1.792 89.504 164.992 11.52-6.592z m126.208-81.504c2.784-0.896 5.088-3.104 6.08-5.792a10.304 10.304 0 0 0-0.512-8.416l-95.2-175.36a10.016 10.016 0 1 0-17.504-0.096l-25.376 45.44a9.792 9.792 0 0 0 0.096 9.824l79.392 146.688a10.016 10.016 0 0 0 13.312 4.224l6.4-9.504-79.104-146.208 13.888-24.8 88.896 164h9.6z m334.08 84.608l87.52-161.6 28.48-1.792-100.288 185.088-0.096 11.616a9.92 9.92 0 0 0 8.8 4.288 10.24 10.24 0 0 0 8.288-5.216l109.408-202.08c1.696-3.2 1.6-7.104-0.416-10.112a9.728 9.728 0 0 0-8.384-4.704h-0.64l-51.968 3.296a10.24 10.24 0 0 0-8.192 5.216l-87.52 161.408a10.016 10.016 0 0 0 1.504 11.584l13.504 3.008z m-99.904-68a10.016 10.016 0 0 0 13.312-4.192l79.68-147.008c1.6-3.008 1.728-6.72 0-9.696l-25.6-45.504a10.336 10.336 0 0 0-8.8-4.992s-0.096 0 0 0a9.92 9.92 0 0 0-8.768 5.184l-95.104 175.52a9.984 9.984 0 0 0 5.6 14.208l10.688-2.336 87.68-161.888 14.016 24.896-78.4 144.704 5.696 11.104zM579.104 185.6l104.48-192.608 15.328 27.2 25.6 45.6c0 0.096 0.096 0.096 0.096 0.224l31.808 56.672a10.016 10.016 0 0 0 9.376 5.12l65.12-4.192 52-3.328h0.288l0.992-0.096 30.08-1.984-125.888 231.808-0.288 9.184a9.984 9.984 0 0 0 8.8 5.696 10.016 10.016 0 0 0 9.12-5.184l134.4-247.904a10.08 10.08 0 0 0-9.504-14.816l-48.32 3.2h-0.192l-0.992 0.096-51.904 3.328-58.816 3.776-28.8-51.296c0-0.096-0.096-0.096-0.096-0.192l-25.504-45.504-24.192-42.88a9.92 9.92 0 0 0-8.704-5.12s-0.096 0 0 0a9.92 9.92 0 0 0-8.8 5.216l-112.576 207.68a10.08 10.08 0 0 0 6.976 14.592l10.112-4.288zM236.096 350.912l-125.984-232.704 30.976 2.112 52 3.296 65.12 4.16a10.112 10.112 0 0 0 9.408-5.088l32.096-56.672c0-0.096 0.096-0.096 0.096-0.224l25.28-45.6 0.64-1.088s0-0.096 0.064-0.096l14.816-26.016 105.696 195.008 8.896 1.792a10.048 10.048 0 0 0 7.008-14.592l-112.608-207.584a9.92 9.92 0 0 0-8.704-5.216h-0.096a9.92 9.92 0 0 0-8.704 5.12l-24.32 42.784-0.064 0.192-25.312 45.504s0 0.096-0.096 0.096l-28.992 51.296-58.816-3.776-52-3.328-49.088-3.296a10.08 10.08 0 0 0-9.504 14.784l134.08 247.616a9.824 9.824 0 0 0 9.12 5.216 9.984 9.984 0 0 0 8.8-5.696l0.192-8zM511.904 174.592a313.376 313.376 0 0 0-223.104 92.416 313.376 313.376 0 0 0-92.416 223.104 313.376 313.376 0 0 0 92.416 223.104 313.376 313.376 0 0 0 223.104 92.384 313.376 313.376 0 0 0 223.104-92.384 313.376 313.376 0 0 0 92.384-223.104 313.376 313.376 0 0 0-92.384-223.104 313.376 313.376 0 0 0-223.104-92.416z m0 611.008c-78.912 0-153.088-30.72-208.992-86.496a293.12 293.12 0 0 1-86.528-208.992c0-79.04 30.72-153.12 86.528-209.024a293.536 293.536 0 0 1 208.96-86.496c79.04 0 153.12 30.72 209.024 86.496a293.568 293.568 0 0 1 86.496 209.024c0 78.976-30.72 153.088-86.496 208.96a293.888 293.888 0 0 1-208.992 86.528zM511.904 225.28c-146.016 0-264.8 118.912-264.8 265.024 0 70.72 27.52 137.184 77.504 187.2a263.168 263.168 0 0 0 187.296 77.6c70.784 0 137.28-27.616 187.392-77.696a263.712 263.712 0 0 0 77.408-187.296c0-70.72-27.52-137.216-77.504-187.2a263.36 263.36 0 0 0-187.296-77.6z m0 509.824a243.264 243.264 0 0 1-173.12-71.68 243.264 243.264 0 0 1-71.68-173.12c0-135.104 109.792-244.992 244.8-244.992a243.264 243.264 0 0 1 173.12 71.68 243.264 243.264 0 0 1 71.68 173.12 243.552 243.552 0 0 1-71.616 173.184 243.008 243.008 0 0 1-173.184 71.808z m0-454.592a210.176 210.176 0 0 0-209.92 209.888c0 56.096 21.824 108.8 61.44 148.288a208.832 208.832 0 0 0 148.48 61.312 210.176 210.176 0 0 0 209.92-209.92 208 208 0 0 0-61.632-148.288 208.704 208.704 0 0 0-148.288-61.28z m0 399.488A188.928 188.928 0 0 1 377.6 624.64a188.48 188.48 0 0 1-55.616-134.208 190.144 190.144 0 0 1 189.92-189.888 189.056 189.056 0 0 1 134.208 55.36 188.16 188.16 0 0 1 55.68 134.24 190.144 190.144 0 0 1-189.888 189.888zM460.288 403.2h120.32v36.864h-34.304v153.6h-33.536c-13.312-8.192-26.624-13.312-47.104-17.152v-28.16h35.072v-108.288h-40.448V403.2z"  horiz-adv-x="1024" />
      
      <glyph glyph-name="fankuiyichangshuliang" unicode="&#58893;" d="M457.778361-97.229639H170.420459A103.390426 103.390426 0 0 0 67.147541 6.043279V780.422295A103.407213 103.407213 0 0 0 170.420459 883.695213H745.169836a103.407213 103.407213 0 0 0 103.272918-103.272918v-382.75777a34.413115 34.413115 0 1 0-68.843016 0V780.422295a34.413115 34.413115 0 0 1-34.429902 34.413115H170.420459a34.413115 34.413115 0 0 1-34.413115-34.413115v-774.379016a34.413115 34.413115 0 0 1 34.413115-34.413115H457.778361a34.413115 34.413115 0 1 0 0-68.859803zM718.36118 220.831475c19.137049 0 28.705574-9.568525 28.705574-28.688786v-103.272919c0-19.137049-9.568525-28.705574-28.705574-28.705573-19.137049 0-28.688787 9.568525-28.688787 28.705573V192.125902c0 19.137049 9.568525 28.705574 28.705574 28.705573z m-28.688787-212.303737a28.688787 28.688787 0 1 1 57.377574 0 28.688787 28.688787 0 0 1-57.377574 0z m-37.585836 578.56H260.414951a34.429902 34.429902 0 0 0 0 68.859803h391.70518c19.002754 0 20.647869-15.427148 20.647869-34.413115 0-19.019541-1.645115-34.429902-20.647869-34.429901z m1.72905-189.423213H262.127213a34.413115 34.413115 0 0 0 0 68.843016h391.688394c19.019541 0 20.647869-15.410361 20.647868-34.413115 0-19.019541-1.628328-34.429902-20.647868-34.429901zM456.267541 195.382557H262.127213a34.413115 34.413115 0 0 0 0 68.859804h194.123541a34.413115 34.413115 0 0 0 0-68.843017zM721.836066-123.803279c-122.34282 0-221.855475 99.512656-221.855476 221.838689s99.512656 221.855475 221.838689 221.855475c122.34282 0 221.855475-99.529443 221.855475-221.855475 0-122.326033-99.54623-221.838689-221.855475-221.838689z m0 386.31659c-90.665967 0-164.477902-73.778361-164.477902-164.477901 0-90.682754 73.778361-164.461115 164.461115-164.461115 90.699541 0 164.477902 73.778361 164.477901 164.461115 0 90.682754-73.778361 164.477902-164.477901 164.477901z"  horiz-adv-x="1024" />
      
      <glyph glyph-name="fankuishuliang" unicode="&#58894;" d="M513.316571-42.671543H262.933943a90.097371 90.097371 0 0 0-89.994972 89.994972v674.816a90.112 90.112 0 0 0 89.994972 89.994971h500.823771a90.112 90.112 0 0 0 90.0096-89.994971v-333.546058a29.988571 29.988571 0 0 0-60.0064 0V722.139429a29.988571 29.988571 0 0 1-29.988571 29.988571H262.904686a29.988571 29.988571 0 0 1-29.988572-29.988571v-674.816a29.988571 29.988571 0 0 1 29.988572-29.988572h250.411885a29.988571 29.988571 0 1 0 0-60.0064zM682.671543 553.691429H341.328457a30.0032 30.0032 0 0 0 0 59.991771h341.328457c16.574171 0 17.993143-13.443657 17.993143-29.988571 0-16.574171-1.418971-30.0032-17.993143-30.0032z m1.506743-165.083429H342.8352a29.988571 29.988571 0 0 0 0 59.991771h341.328457c16.559543 0 17.993143-13.429029 17.993143-29.988571 0-16.574171-1.4336-30.0032-17.993143-30.0032zM512 212.319086H342.8352a29.988571 29.988571 0 0 0 0 60.0064H512a29.988571 29.988571 0 0 0 0-59.991772zM743.409371-65.828571c-106.5984 0-193.316571 86.718171-193.316571 193.316571s86.718171 193.3312 193.316571 193.3312 193.3312-86.7328 193.3312-193.3312c0-106.5984-86.747429-193.316571-193.3312-193.316571z m0 336.647314c-78.994286 0-143.316114-64.292571-143.316114-143.330743 0-79.023543 64.292571-143.316114 143.316114-143.316114 79.023543 0 143.330743 64.292571 143.330743 143.316114 0 79.023543-64.292571 143.330743-143.330743 143.330743zM654.0288 149.942857c-16.676571 0-25.000229-8.338286-25.000229-25.000228 0-16.676571 8.338286-25.000229 25.000229-25.000229h163.137829c16.676571 0 25.014857 8.338286 25.014857 25.000229 0 16.676571-8.338286 25.000229-25.014857 25.000228H654.043429z"  horiz-adv-x="1024" />
      
      <glyph glyph-name="disanming" unicode="&#58896;" d="M552.8 363.52L340.8-27.616l-23.68 41.696-0.736 1.184-25.376 45.696-32.096 56.8-65.12-4.16-52-3.328-49.088-3.296 211.808 391.104 212.384-115.104 35.904-19.52zM380.192 457.216L193.792 113.6l-52-3.296 199.392 367.904 39.04-20.992z m135.904-73.824l-199.68-368-25.408 45.504 186.08 343.808 39.04-21.312zM931.616 107.008l-48.32 3.2-1.088 0.096-52 3.296-65.12 4.192-31.872-56.8-25.6-45.696-24.224-42.88-212 391.072 212.32 115.2 35.776 19.424 212.096-391.104zM644 457.216l186.208-343.616 52-3.296-199.2 367.904-39.008-20.992z m-135.904-73.824l199.52-368 25.6 45.504-186.304 343.808-38.816-21.312zM206.4 490.112a305.504 305.504 0 1 1 611.008 0 305.504 305.504 0 0 1-611.008 0zM511.904 745.088a254.816 254.816 0 0 1-254.816-254.784c0-140.608 114.016-255.008 254.816-255.008s254.784 114.208 254.784 254.816c0 140.576-113.792 254.976-254.784 254.976z m0-454.592a199.968 199.968 0 0 0-199.904 199.904 199.52 199.52 0 0 0 199.904 199.616 199.968 199.968 0 0 0 199.904-199.904c0-110.528-89.696-199.616-199.904-199.616zM288.608 281.696c2.88-3.104 3.52-7.808 1.504-11.584L202.56 108.896a9.92 9.92 0 0 0-8.192-5.184l-52-3.296c-0.192-0.128-0.416-0.128-0.608-0.128a10.08 10.08 0 0 0-8.8 14.816l109.408 201.92a10.016 10.016 0 0 0 8.32 5.184 10.144 10.144 0 0 0 8.768-4.288l1.504-8.512-101.792-187.904 28.384 1.792L277.12 288.32l11.52-6.592z m126.208-81.504c2.784-0.896 5.088-3.072 6.08-5.76a10.304 10.304 0 0 0-0.512-8.416l-95.2-175.424a10.016 10.016 0 1 0-17.504-0.096l-25.376 45.504a9.792 9.792 0 0 0 0.096 9.792l79.392 146.72a10.016 10.016 0 0 0 13.312 4.192l6.4-9.504-79.104-146.208 13.888-24.8 88.896 164h9.6z m334.08 84.608l87.52-161.6 28.48-1.792-100.288 185.088-0.096 11.616a9.92 9.92 0 0 0 8.8 4.288 10.24 10.24 0 0 0 8.288-5.184l109.408-202.112c1.696-3.2 1.6-7.104-0.416-10.112a9.728 9.728 0 0 0-8.384-4.672h-0.64l-51.968 3.296a10.208 10.208 0 0 0-8.192 5.184l-87.52 161.408a10.016 10.016 0 0 0 1.504 11.584l13.504 3.008z m-99.904-68a10.016 10.016 0 0 0 13.312-4.192l79.68-147.008c1.6-3.008 1.728-6.72 0-9.696l-25.6-45.504a10.336 10.336 0 0 0-8.8-4.992s-0.096 0 0 0a9.92 9.92 0 0 0-8.768 5.184l-95.104 175.52a9.984 9.984 0 0 0 5.6 14.208l10.688-2.304 87.68-161.92 14.016 24.896-78.4 144.704 5.696 11.104zM579.104 185.6l104.48-192.608 15.328 27.2 25.6 45.6c0 0.096 0.096 0.096 0.096 0.224l31.808 56.672a10.016 10.016 0 0 0 9.376 5.12l65.12-4.192 52-3.328h0.288l0.992-0.096 30.08-1.984-125.888 231.808-0.288 9.184a9.984 9.984 0 0 0 8.8 5.696 10.016 10.016 0 0 0 9.12-5.184l134.4-247.904a10.08 10.08 0 0 0-9.504-14.816l-48.32 3.2h-0.192l-0.992 0.096-51.904 3.328-58.816 3.776-28.8-51.296c0-0.096-0.096-0.096-0.096-0.192l-25.504-45.504-24.192-42.88a9.92 9.92 0 0 0-8.704-5.12s-0.096 0 0 0a9.92 9.92 0 0 0-8.8 5.216l-112.576 207.68a10.08 10.08 0 0 0 6.976 14.592l10.112-4.288zM236.096 350.912l-125.984-232.704 30.976 2.112 52 3.296 65.12 4.16a10.112 10.112 0 0 0 9.408-5.088l32.096-56.672c0-0.096 0.096-0.096 0.096-0.224l25.28-45.6 0.64-1.088s0-0.096 0.064-0.096l14.816-26.016 105.696 195.008 8.896 1.792a10.048 10.048 0 0 0 7.008-14.592l-112.608-207.584a9.92 9.92 0 0 0-8.704-5.216h-0.096a9.92 9.92 0 0 0-8.704 5.12l-24.32 42.784-0.064 0.192-25.312 45.504s0 0.096-0.096 0.096l-28.992 51.296-58.816-3.776-52-3.328-49.088-3.296a10.08 10.08 0 0 0-9.504 14.784l134.08 247.616a9.824 9.824 0 0 0 9.12 5.216 9.984 9.984 0 0 0 8.8-5.696l0.192-8zM511.904 174.592a313.376 313.376 0 0 0-223.104 92.416 313.376 313.376 0 0 0-92.416 223.104 313.376 313.376 0 0 0 92.416 223.104 313.376 313.376 0 0 0 223.104 92.384 313.376 313.376 0 0 0 223.104-92.384 313.376 313.376 0 0 0 92.384-223.104 313.376 313.376 0 0 0-92.384-223.104 313.376 313.376 0 0 0-223.104-92.416z m0 611.008c-78.912 0-153.088-30.72-208.992-86.496a293.12 293.12 0 0 1-86.528-208.992c0-79.04 30.72-153.12 86.528-209.024a293.536 293.536 0 0 1 208.96-86.496c79.04 0 153.12 30.72 209.024 86.496a293.568 293.568 0 0 1 86.496 209.024c0 78.976-30.72 153.088-86.496 208.96a293.888 293.888 0 0 1-208.992 86.528zM511.904 225.28c-146.016 0-264.8 118.912-264.8 265.024 0 70.72 27.52 137.184 77.504 187.2a263.168 263.168 0 0 0 187.296 77.6c70.784 0 137.28-27.616 187.392-77.696a263.712 263.712 0 0 0 77.408-187.296c0-70.72-27.52-137.216-77.504-187.2a263.36 263.36 0 0 0-187.296-77.6z m0 509.824a243.264 243.264 0 0 1-173.12-71.68 243.264 243.264 0 0 1-71.68-173.12c0-135.104 109.792-244.992 244.8-244.992a243.264 243.264 0 0 1 173.12 71.68 243.264 243.264 0 0 1 71.68 173.12 243.552 243.552 0 0 1-71.616 173.184 243.008 243.008 0 0 1-173.184 71.808z m0-454.592a210.176 210.176 0 0 0-209.92 209.888c0 56.096 21.824 108.8 61.44 148.288a208.832 208.832 0 0 0 148.48 61.312 210.176 210.176 0 0 0 209.92-209.92 208 208 0 0 0-61.632-148.288 208.704 208.704 0 0 0-148.288-61.28z m0 399.488A188.928 188.928 0 0 1 377.6 624.64a188.48 188.48 0 0 1-55.616-134.208 190.144 190.144 0 0 1 189.92-189.888 189.056 189.056 0 0 1 134.208 55.36 188.16 188.16 0 0 1 55.68 134.24 190.144 190.144 0 0 1-189.888 189.888zM511.744 389.376c37.888 0 70.4 19.968 70.4 55.552 0 24.576-15.616 39.936-36.864 46.336v1.28c20.48 8.192 30.72 23.04 30.72 41.984 0 34.048-25.856 52.48-65.28 52.48-22.528 0-41.472-8.704-59.136-23.552l23.04-27.904c11.52 9.984 21.248 15.872 34.048 15.872 14.08 0 21.76-7.168 21.76-20.224 0-15.104-10.24-25.088-42.752-25.088v-32c39.936 0 48.64-9.728 48.64-26.112 0-14.336-11.52-21.76-29.184-21.76-14.848 0-28.16 7.424-39.68 18.432l-20.992-28.672c13.824-16.128 35.072-26.624 65.28-26.624z"  horiz-adv-x="1024" />
      
      <glyph glyph-name="lishiwenjian" unicode="&#58897;" d="M0 896m170.666667 0l682.666666 0q170.666667 0 170.666667-170.666667l0-682.666666q0-170.666667-170.666667-170.666667l-682.666666 0q-170.666667 0-170.666667 170.666667l0 682.666666q0 170.666667 170.666667 170.666667ZM628.280889 580.608a15.530667 15.530667 0 0 0-10.951111 4.380444 37.034667 37.034667 0 0 0-7.793778 10.638223 59.363556 59.363556 0 0 0-6.257778 23.751111V696.888889h1.251556c3.328 0 6.769778-0.512 10.296889-1.564445 3.555556-1.052444 7.736889-3.015111 12.515555-5.944888 4.807111-2.901333 10.638222-7.168 17.493334-12.8 6.883556-5.632 15.530667-13.027556 25.941333-22.186667 11.264-10.012444 20.110222-18.574222 26.567111-25.656889a236.088889 236.088889 0 0 0 15.018667-17.806222c3.555556-4.778667 5.717333-8.846222 6.542222-12.174222 0.853333-3.356444 1.28-6.257778 1.28-8.760889v-9.386667h-91.904z m72.533333-234.439111c19.143111 0 37.063111-3.527111 53.76-10.609778a137.045333 137.045333 0 0 0 73.102222-73.159111c7.111111-16.668444 10.666667-34.588444 10.666667-53.76a137.045333 137.045333 0 0 0-83.768889-126.919111 135.992889 135.992889 0 0 0-53.76-10.609778 137.045333 137.045333 0 0 0-96.910222 40.021333 141.425778 141.425778 0 0 0-29.696 43.747556 132.608 132.608 0 0 0-10.951111 53.76c0 19.171556 3.640889 37.091556 10.951111 53.76a141.368889 141.368889 0 0 0 29.696 43.776c12.515556 12.515556 27.079111 22.300444 43.747556 29.383111a134.428444 134.428444 0 0 0 53.134222 10.609778z m78.136889-159.402667c3.726222 0 7.082667 2.076444 9.984 6.257778a25.486222 25.486222 0 0 1 4.380445 14.990222 25.486222 25.486222 0 0 1-4.380445 15.018667c-2.901333 4.152889-6.257778 6.257778-9.984 6.257778h-59.392v54.983111c0 3.356444-1.792 6.257778-5.319111 8.760889-3.555556 2.503111-8.448 3.754667-14.705778 3.754666-6.257778 0-10.922667-1.251556-14.051555-3.754666-3.128889-2.503111-4.693333-5.404444-4.693334-8.760889v-68.750222c-0.853333-3.328-1.251556-5.831111-1.251555-7.509334 0-5.831111 1.450667-10.808889 4.380444-14.990222 2.929778-4.181333 6.257778-6.257778 10.012445-6.257778h85.020444z m-256.312889 40.618667a61.610667 61.610667 0 0 1-0.625778-8.732445v-9.386666c0-18.773333 2.702222-36.465778 8.106667-53.134222 5.404444-16.668444 12.942222-32.312889 22.528-46.876445h-221.297778c-7.936 0-16.583111 2.275556-25.969777 6.855111A109.568 109.568 0 0 0 258.844444 159.886222a60.131556 60.131556 0 0 0-8.135111 30.008889V616.248889c0 8.760889 2.076444 17.806222 6.257778 27.192889 4.181333 9.386667 9.585778 18.033778 16.241778 25.941333a90.737778 90.737778 0 0 0 23.153778 19.683556c8.732444 5.205333 17.92 7.822222 27.505777 7.822222h239.416889v-78.136889c0-8.334222 1.251556-16.981333 3.754667-25.941333 2.503111-8.96 6.456889-17.408 11.889778-25.315556 5.404444-7.936 12.288-14.392889 20.622222-19.399111a56.035556 56.035556 0 0 1 29.383111-7.509333h91.278222v-155.648a43.690667 43.690667 0 0 1-10.638222 1.251555h-11.264c-31.232 0-59.790222-7.310222-85.617778-21.902222a176.213333 176.213333 0 0 1-62.520889-58.737778h-181.930666c-10.808889 0-20.110222-3.754667-27.818667-11.264a36.920889 36.920889 0 0 1-11.576889-27.505778c0-10.808889 3.868444-20.110222 11.576889-27.818666 7.708444-7.708444 16.981333-11.576889 27.818667-11.576889h154.424889z m-154.424889 235.064889c-10.808889 0-20.110222-3.84-27.818666-11.548445a37.916444 37.916444 0 0 1-11.576889-27.818666c0-10.837333 3.868444-20.024889 11.576889-27.505778 7.708444-7.509333 16.981333-11.264 27.818666-11.264h234.439111c10.808889 0 19.996444 3.754667 27.505778 11.264 7.509333 7.480889 11.235556 16.668444 11.235556 27.505778 0 10.808889-3.726222 20.110222-11.235556 27.818666a36.892444 36.892444 0 0 1-27.505778 11.548445h-234.439111z"  horiz-adv-x="1024" />
      
      <glyph glyph-name="moxingzongshu-1" unicode="&#58898;" d="M0 896m27.2831 0l1466.466599 0q27.2831 0 27.2831-27.2831l0-593.407414q0-27.2831-27.2831-27.2831l-1466.466599 0q-27.2831 0-27.2831 27.2831l0 593.407414q0 27.2831 27.2831 27.2831ZM1190.470765 691.444961c8.682846 0 16.11067-3.001141 22.283471-9.030706 6.179622-6.022744 9.269433-13.38236 9.269433-22.078848v-125.454512c0-8.696488-3.089811-16.137953-9.269433-22.331217-6.172801-6.186443-13.600625-9.276254-22.283471-9.276254h-125.208965c-8.682846 0-16.028821 3.089811-22.037923 9.276254-6.009103 6.193264-9.017064 13.634729-9.017065 22.331217V660.342228c0 8.696488 3.007962 16.062925 9.017065 22.078848 6.009103 6.022744 13.355077 9.037527 22.037923 9.037527h125.208965z m0-250.902204c8.682846 0 16.11067-3.014782 22.283471-9.037526 6.179622-6.022744 9.269433-13.38236 9.269433-22.078849v-125.952429c0-8.703309-3.089811-16.062925-9.269433-22.085669-6.172801-6.022744-13.600625-9.030706-22.283471-9.030706h-125.208965c-8.682846 0-16.028821 3.007962-22.037923 9.030706-6.009103 6.022744-9.017064 13.38236-9.017065 22.078849V409.426382c0 8.696488 3.007962 16.056104 9.017065 22.078849s13.355077 9.037527 22.037923 9.037526h125.208965z m250.922666 0c8.676026 0 16.022-3.014782 22.031103-9.037526 6.015923-6.022744 9.017064-13.38236 9.017064-22.078849v-125.952429c0-8.703309-3.001141-16.062925-9.017064-22.085669-6.009103-6.022744-13.355077-9.030706-22.031103-9.030706h-125.215785c-8.676026 0-16.103849 3.007962-22.283472 9.030706-6.179622 6.022744-9.269433 13.38236-9.269433 22.078849V409.426382c0 8.696488 3.089811 16.056104 9.269433 22.078849 6.179622 6.022744 13.607446 9.037527 22.283472 9.037526h125.215785z m69.612828 195.708494c6.677539-6.69118 10.019718-14.555534 10.019719-23.58624 0-9.037527-3.34218-16.731361-10.019719-23.088323l-93.158143-93.335483c-6.677539-6.684359-14.43958-10.03336-23.286125-10.03336-8.846545 0-16.608587 3.34218-23.286126 10.03336l-93.158143 93.335483c-6.343321 6.356962-9.514981 14.050796-9.514981 23.088323 0 9.030706 3.17166 16.895059 9.514981 23.58624l93.158143 93.335483c6.677539 6.356962 14.43958 9.535443 23.286126 9.535444 8.846545 0 16.608587-3.178481 23.286125-9.535444l93.158143-93.335483z"  horiz-adv-x="2403" />
      
      <glyph glyph-name="moxingzongshu-2" unicode="&#58899;" d="M0 896m27.2831 0l1466.466599 0q27.2831 0 27.2831-27.2831l0-593.407414q0-27.2831-27.2831-27.2831l-1466.466599 0q-27.2831 0-27.2831 27.2831l0 593.407414q0 27.2831 27.2831 27.2831ZM1456.371853 253.026014h-402.698549c-11.186071 0-22.372142 11.186071-22.372142 24.241034v425.070691c0 13.048142 11.186071 24.234213 22.372142 24.234213h39.151247v-24.234213c0-26.103105 20.51007-48.475247 46.606355-48.475247 26.103105 0 46.613176 22.372142 46.613176 48.475247V726.571952h22.372141v-24.234213c0-26.103105 20.503249-48.475247 46.606355-48.475247 26.103105 0 46.606355 22.372142 46.606355 48.475247V726.571952h22.372142v-24.234213c0-26.103105 20.51007-48.475247 46.613175-48.475247 26.096285 0 46.606355 22.372142 46.606355 48.475247V726.571952h39.151248c13.048142 0 22.372142-11.186071 22.372141-24.234213v-425.070691c0-13.054963-11.186071-24.241034-22.372141-24.241034z m-63.385461 333.720053h-275.927627c-13.048142 0-22.372142-11.186071-22.372142-24.234213 0-13.054963 11.186071-24.241034 22.372142-24.241034H1394.848463c13.048142 0 22.372142 11.186071 22.372142 24.241034 0 13.048142-11.186071 24.234213-24.234213 24.234213z m0-106.267673h-275.927627c-13.048142 0-22.372142-11.186071-22.372142-24.234213 0-13.054963 11.186071-24.241034 22.372142-24.241034H1394.848463c13.048142 0 22.372142 11.186071 22.372142 24.241034 0 14.910214-11.186071 24.234213-24.234213 24.234213z m5.593035-104.405601h-287.113698c-11.186071 0-18.641178-9.317178-18.641178-20.503249 0-11.186071 9.323999-20.51007 18.641178-20.51007h285.244806c11.186071 0 18.647999 9.323999 18.647998 20.51007 1.862072 11.186071-7.461928 20.503249-16.779106 20.503249z m-27.965177 300.16184c-13.054963 0-22.372142 11.186071-22.372142 24.234213v50.337319c0 13.054963 9.317178 24.241034 22.372142 24.241034 13.048142 0 22.372142-11.186071 22.372142-24.241034v-48.468426c0-14.917035-9.323999-26.103105-22.372142-26.103106z m-115.591672 0c-13.048142 0-22.372142 11.186071-22.372141 24.234213v50.337319c0 13.054963 9.323999 24.241034 22.372141 24.241034 13.048142 0 22.372142-11.186071 22.372142-24.241034v-48.468426c0-14.917035-9.323999-26.103105-22.372142-26.103106z m-115.591672 0c-13.048142 0-22.372142 11.186071-22.372141 24.234213v50.337319c0 13.054963 9.323999 24.241034 22.372141 24.241034 13.054963 0 22.372142-11.186071 22.372142-24.241034v-48.468426c0-14.917035-9.317178-26.103105-22.372142-26.103106z"  horiz-adv-x="2425" />
      
      <glyph glyph-name="tianjiawenjian-lv" unicode="&#58900;" d="M0.273067 773.12C2.935467 805.751467 24.016213 843.188907 54.613333 868.693333c32.768 27.306667 61.44 27.306667 122.88 27.306667 88.746667 0 139.810133-3.97312 177.493334-34.133333 34.133333-27.306667 88.746667-75.093333 102.4-88.746667H1024a81.92 81.92 0 0 0 81.92-81.92v-737.28a81.92 81.92 0 0 0-81.92-81.92H81.92a81.92 81.92 0 0 0-81.92 81.92V773.12h0.273067zM199.789227 553.260373A81.92 81.92 0 0 0 277.504 609.28h946.858667c55.924053 0 95.409493-54.777173 77.728426-107.820373l-191.146666-573.44A81.92 81.92 0 0 0 1033.216-128H86.357333C30.43328-128-9.05216-73.222827 8.628907-20.179627l191.146666 573.44zM450.56 281.6m54.613333 0l327.68 0q54.613333 0 54.613334-54.613333l0 0q0-54.613333-54.613334-54.613334l-327.68 0q-54.613333 0-54.613333 54.613334l0 0q0 54.613333 54.613333 54.613333ZM614.4 8.533333m0 54.613334l0 327.68q0 54.613333 54.613333 54.613333l0 0q54.613333 0 54.613334-54.613333l0-327.68q0-54.613333-54.613334-54.613334l0 0q-54.613333 0-54.613333 54.613334Z"  horiz-adv-x="1338" />
      
      <glyph glyph-name="moxingzongshu" unicode="&#58910;" d="M0 896m27.2831 0l1466.466599 0q27.2831 0 27.2831-27.2831l0-593.407414q0-27.2831-27.2831-27.2831l-1466.466599 0q-27.2831 0-27.2831 27.2831l0 593.407414q0 27.2831 27.2831 27.2831ZM1190.470765 691.444961c8.682846 0 16.11067-3.001141 22.283471-9.030706 6.179622-6.022744 9.269433-13.38236 9.269433-22.078848v-125.454512c0-8.696488-3.089811-16.137953-9.269433-22.331217-6.172801-6.186443-13.600625-9.276254-22.283471-9.276254h-125.208965c-8.682846 0-16.028821 3.089811-22.037923 9.276254-6.009103 6.193264-9.017064 13.634729-9.017065 22.331217V660.342228c0 8.696488 3.007962 16.062925 9.017065 22.078848 6.009103 6.022744 13.355077 9.037527 22.037923 9.037527h125.208965z m0-250.902204c8.682846 0 16.11067-3.014782 22.283471-9.037526 6.179622-6.022744 9.269433-13.38236 9.269433-22.078849v-125.952429c0-8.703309-3.089811-16.062925-9.269433-22.085669-6.172801-6.022744-13.600625-9.030706-22.283471-9.030706h-125.208965c-8.682846 0-16.028821 3.007962-22.037923 9.030706-6.009103 6.022744-9.017064 13.38236-9.017065 22.078849V409.426382c0 8.696488 3.007962 16.056104 9.017065 22.078849s13.355077 9.037527 22.037923 9.037526h125.208965z m250.922666 0c8.676026 0 16.022-3.014782 22.031103-9.037526 6.015923-6.022744 9.017064-13.38236 9.017064-22.078849v-125.952429c0-8.703309-3.001141-16.062925-9.017064-22.085669-6.009103-6.022744-13.355077-9.030706-22.031103-9.030706h-125.215785c-8.676026 0-16.103849 3.007962-22.283472 9.030706-6.179622 6.022744-9.269433 13.38236-9.269433 22.078849V409.426382c0 8.696488 3.089811 16.056104 9.269433 22.078849 6.179622 6.022744 13.607446 9.037527 22.283472 9.037526h125.215785z m69.612828 195.708494c6.677539-6.69118 10.019718-14.555534 10.019719-23.58624 0-9.037527-3.34218-16.731361-10.019719-23.088323l-93.158143-93.335483c-6.677539-6.684359-14.43958-10.03336-23.286125-10.03336-8.846545 0-16.608587 3.34218-23.286126 10.03336l-93.158143 93.335483c-6.343321 6.356962-9.514981 14.050796-9.514981 23.088323 0 9.030706 3.17166 16.895059 9.514981 23.58624l93.158143 93.335483c6.677539 6.356962 14.43958 9.535443 23.286126 9.535444 8.846545 0 16.608587-3.178481 23.286125-9.535444l93.158143-93.335483z"  horiz-adv-x="2403" />
      
      <glyph glyph-name="renwuxiafashengfen" unicode="&#58911;" d="M512 657.056914c-29.257143 0-48.757029-19.499886-48.757029-48.757028S482.742857 559.542857 512 559.542857s48.757029 19.499886 48.757029 48.757029S541.257143 657.071543 512 657.071543zM512 705.828571c53.642971 0 97.528686-43.885714 97.528686-97.528685 0-53.628343-43.885714-97.514057-97.528686-97.514057s-97.528686 43.885714-97.528686 97.514057C414.471314 661.942857 458.357029 705.828571 512 705.828571z m0 48.757029c-82.900114 0-146.285714-63.3856-146.285714-146.285714C365.714286 559.542857 409.6 471.771429 502.242743 354.742857l9.757257-9.757257 9.757257 9.757257c87.771429 112.142629 136.528457 199.914057 136.528457 248.685714v4.871315c0 82.900114-63.3856 146.285714-146.285714 146.285714z m0 48.757029c107.271314 0 195.042743-87.771429 195.042743-195.042743C707.042743 535.157029 643.657143 423.0144 512 266.971429c-131.657143 156.028343-195.042743 268.1856-195.042743 341.328457 0 107.285943 87.771429 195.057371 195.042743 195.057371z m458.357029-195.042743c4.885943-4.871314 4.885943-9.742629 4.885942-14.628572v-438.857143c0-14.628571-9.757257-29.257143-19.514514-38.999771l-4.871314-4.885943-277.942857-141.399771c-4.871314-4.885943-9.757257-4.885943-19.499886 0h-4.885943L365.714286 106.057143 117.028571-15.857371c-24.385829-9.742629-48.757029-4.871314-63.3856 14.628571L48.757029 3.657143C43.885714 8.528457 43.885714 13.399771 43.885714 18.285714V462.014171c0 14.628571 9.757257 29.257143 19.499886 39.0144l4.885943 4.871315L248.685714 598.557257c9.757257 4.871314 24.385829 0 34.128457-9.757257 4.885943-9.757257 0-24.385829-4.871314-29.257143h-4.871314l-175.542857-97.528686v-433.9712l258.428343 126.7712c4.885943 4.885943 9.757257 4.885943 19.514514 0H380.342857l282.814172-141.399771L931.357257 149.942857V583.914057l-160.914286-82.885486c-9.757257-4.885943-24.385829 0-34.143085 9.742629-4.871314 9.757257 0 24.385829 4.885943 29.257143H746.057143l160.914286 82.900114c19.499886 19.514514 48.757029 9.757257 63.3856-14.628571zM853.328457 432.771657c4.885943-4.885943 4.885943-9.757257 4.885943-14.628571v-204.8c0-14.628571-9.757257-29.257143-19.514514-39.0144l-4.871315-4.885943-160.914285-82.885486c-4.871314-4.885943-9.757257-4.885943-19.499886 0h-4.885943L365.714286 223.085714l-131.657143-63.3856c-24.385829-9.757257-48.757029-4.885943-63.3856 14.628572L165.7856 179.2C160.914286 184.085943 160.914286 188.957257 160.914286 193.828571V403.514514c0 14.628571 9.757257 29.257143 19.499885 38.999772l4.885943 4.885943L248.685714 481.514057c9.757257 4.871314 24.385829 0 34.128457-9.757257 4.885943-9.742629 0-24.3712-4.871314-29.257143h-4.871314l-58.514286-38.999771v-199.928686l141.399772 68.256914c4.885943 4.885943 9.757257 4.885943 19.514514 0H380.342857l282.814172-141.399771L814.328686 208.457143V408.385829l-43.885715-24.385829c-9.757257-4.871314-24.385829 0-34.143085 9.757257-4.871314 9.742629 0 24.3712 4.885943 29.257143H746.057143l43.885714 24.3712c19.499886 19.514514 48.757029 9.757257 63.3856-14.628571z"  horiz-adv-x="1024" />
      
      <glyph glyph-name="txt" unicode="&#58881;" d="M269.963636-128h605.090909c51.414109 0 93.090909 41.6768 93.09091 93.090909V634.023564a93.090909 93.090909 0 0 1-27.266328 65.815272L772.002909 868.742982A93.090909 93.090909 0 0 1 706.169018 896H269.963636c-51.414109 0-93.090909-41.6768-93.090909-93.090909v-837.818182c0-51.414109 41.6768-93.090909 93.090909-93.090909zM55.854545 244.363636m37.236364 0l409.6 0q37.236364 0 37.236364-37.236363l0-176.872728q0-37.236364-37.236364-37.236363l-409.6 0q-37.236364 0-37.236364 37.236363l0 176.872728q0 37.236364 37.236364 37.236363ZM744.727273 896l223.418182-223.418182H819.2a74.472727 74.472727 0 0 0-74.472727 74.472727V896zM307.2 737.745455h325.818182v-46.545455H307.2zM307.2 635.345455h325.818182v-46.545455H307.2zM307.2 532.945455h437.527273v-46.545455H307.2zM307.2 430.545455h530.618182v-46.545455H307.2zM153.041455 82.385455V58.181818H130.513455v24.203637h22.528z m32.14429 66.466909v33.512727h24.948364v-33.512727h23.086546v-19.362909h-23.086546v-32.954182c0-7.698618 0.679564-12.539345 2.048-14.522182 2.103855-2.978909 5.827491-4.468364 11.170909-4.468364h9.867637V58.181818h-18.059637c-10.798545 0-18.497164 2.606545-23.086545 7.819637-4.598691 5.213091-6.888727 13.963636-6.888728 26.251636v37.236364h-15.825454v19.362909h15.825454z m91.182546-45.800728l-32.768 45.800728h27.927273l19.176727-26.810182 18.432 26.810182h29.416727l-33.885091-45.800728 33.885091-44.869818h-29.416727l-18.432 25.879273-19.176727-25.879273h-29.230546l34.071273 44.869818z m85.718109 45.800728v33.512727h24.948364v-33.512727h23.086545v-19.362909h-23.086545v-32.954182c0-7.698618 0.679564-12.539345 2.048-14.522182 2.103855-2.978909 5.827491-4.468364 11.170909-4.468364h9.867636V58.181818h-18.059636c-10.798545 0-18.497164 2.606545-23.086546 7.819637-4.598691 5.213091-6.888727 13.963636-6.888727 26.251636v37.236364h-15.825455v19.362909h15.825455z"  horiz-adv-x="1024" />
      
      <glyph glyph-name="xls" unicode="&#58883;" d="M269.963636-128h605.090909c51.414109 0 93.090909 41.6768 93.09091 93.090909V634.023564a93.090909 93.090909 0 0 1-27.266328 65.815272L772.002909 868.742982A93.090909 93.090909 0 0 1 706.169018 896H269.963636c-51.414109 0-93.090909-41.6768-93.090909-93.090909v-837.818182c0-51.414109 41.6768-93.090909 93.090909-93.090909zM55.854545 244.363636m37.236364 0l409.6 0q37.236364 0 37.236364-37.236363l0-176.872728q0-37.236364-37.236364-37.236363l-409.6 0q-37.236364 0-37.236364 37.236363l0 176.872728q0 37.236364 37.236364 37.236363ZM744.727273 896l223.418182-223.418182H819.2a74.472727 74.472727 0 0 0-74.472727 74.472727V896zM307.2 737.745455h325.818182v-46.545455H307.2zM307.2 635.345455h325.818182v-46.545455H307.2zM307.2 532.945455h437.527273v-46.545455H307.2zM307.2 430.545455h530.618182v-46.545455H307.2zM153.041455 82.385455V58.181818H130.513455v24.203637h22.528z m47.969745 20.666181l-32.768 45.800728h27.927273l19.176727-26.810182 18.432 26.810182h29.416727l-33.885091-45.800728 33.885091-44.869818h-29.416727l-18.432 25.879273-19.176727-25.879273h-29.230546l34.071273 44.869818zM304.965818 58.181818h-24.948363V182.365091h24.948363V58.181818z m106.980073 90.670546v-19.362909h-44.125091c-5.092073 0-8.313018-0.251345-9.681455-0.744728-2.857891-0.996073-4.282182-3.416436-4.282181-7.261091 0-3.230255 1.368436-5.706473 4.096-7.447272 1.489455-0.996073 5.520291-1.489455 12.101818-1.489455h14.708363c9.430109 0 16.877382-1.982836 22.341819-5.957818 6.078836-4.468364 9.122909-11.049891 9.122909-19.735273 0-6.581527-1.861818-12.5952-5.585455-18.059636-2.727564-4.347345-6.078836-7.195927-10.053818-8.564364-3.844655-1.368436-10.361018-2.048-19.549091-2.048h-51.572364v19.362909h44.497455c5.464436 0 9.188073 0.065164 11.170909 0.186182 4.468364 0.493382 6.702545 3.044073 6.702546 7.633455 0 3.723636-1.489455 6.265018-4.468364 7.633454-1.489455 0.744727-5.092073 1.117091-10.798546 1.117091h-15.080727c-5.957818 0-10.5472 0.372364-13.777454 1.117091a24.501527 24.501527 0 0 0-8.750546 4.096c-3.351273 2.3552-6.022982 5.585455-8.005818 9.681455-1.861818 4.217018-2.792727 8.685382-2.792727 13.40509 0 9.057745 3.286109 16.262982 9.867636 21.597091 3.974982 3.230255 10.863709 4.840727 20.666182 4.840728h53.248z"  horiz-adv-x="1024" />
      
      <glyph glyph-name="doc" unicode="&#58884;" d="M269.963636-128h605.090909c51.414109 0 93.090909 41.6768 93.09091 93.090909V634.023564a93.090909 93.090909 0 0 1-27.266328 65.815272L772.002909 868.742982A93.090909 93.090909 0 0 1 706.169018 896H269.963636c-51.414109 0-93.090909-41.6768-93.090909-93.090909v-837.818182c0-51.414109 41.6768-93.090909 93.090909-93.090909zM55.854545 244.363636m37.236364 0l409.6 0q37.236364 0 37.236364-37.236363l0-176.872728q0-37.236364-37.236364-37.236363l-409.6 0q-37.236364 0-37.236364 37.236363l0 176.872728q0 37.236364 37.236364 37.236363ZM744.727273 896l223.418182-223.418182H819.2a74.472727 74.472727 0 0 0-74.472727 74.472727V896zM307.2 737.745455h325.818182v-46.545455H307.2zM307.2 635.345455h325.818182v-46.545455H307.2zM307.2 532.945455h437.527273v-46.545455H307.2zM307.2 430.545455h530.618182v-46.545455H307.2zM143.732364 91.694545V67.490909H121.204364v24.203636h22.528z m82.599563 66.46691v33.512727h24.762182V67.490909h-42.821818c-8.694691 0-15.266909 0.679564-19.735273 2.048-10.556509 3.351273-18.432 9.9328-23.645091 19.735273-3.602618 6.581527-5.399273 14.6432-5.399272 24.203636 0 15.518255 5.213091 27.554909 15.639272 36.119273 6.823564 5.706473 16.067491 8.564364 27.741091 8.564364h23.458909z m0-71.307637v51.944727h-18.059636c-7.949964 0-13.963636-2.671709-18.059636-8.005818-3.602618-4.468364-5.399273-10.24-5.399273-17.314909 0-10.305164 2.978909-17.687273 8.936727-22.155636 4.096-2.978909 8.936727-4.468364 14.522182-4.468364h18.059636z m91.005673 72.610909c16.756364 0 29.109527-4.840727 37.050182-14.522182 7.326255-8.815709 10.984727-19.921455 10.984727-33.326545 0-14.149818-4.589382-25.441745-13.777454-33.885091-8.443345-7.698618-19.986618-11.543273-34.629819-11.543273-15.145891 0-26.996364 4.347345-35.560727 13.032728-7.940655 7.819636-11.915636 19.241891-11.915636 34.257454 0 12.660364 3.7888 23.207564 11.357091 31.650909 8.443345 9.430109 20.601018 14.214982 36.491636 14.336z m0.186182-18.990545c-15.015564 0-22.528-9.309091-22.528-27.927273 0-7.568291 1.238109-13.339927 3.723636-17.314909 4.096-6.702545 10.426182-10.053818 18.990546-10.053818 14.773527 0 22.155636 9.243927 22.155636 27.741091 0 18.1248-7.447273 27.303564-22.341818 27.554909z m142.056727 17.687273v-19.36291h-29.789091c-10.053818 0-16.9984-2.234182-20.852363-6.702545-3.723636-4.217018-5.585455-10.677527-5.585455-19.362909 0-9.681455 3.044073-16.756364 9.122909-21.224727 2.485527-1.7408 5.157236-2.978909 8.005818-3.723637 2.978909-0.623709 7.074909-0.930909 12.288-0.930909h26.810182V67.490909h-34.071273c-9.178764 0-16.439855 0.930909-21.783272 2.792727a33.698909 33.698909 0 0 0-14.149819 9.681455c-7.819636 8.685382-11.729455 19.735273-11.729454 33.140364 0 16.132655 4.654545 28.178618 13.963636 36.119272 3.723636 3.230255 8.192 5.520291 13.405091 6.888728 5.213091 1.368436 11.9808 2.048 20.293818 2.048h34.071273z"  horiz-adv-x="1024" />
      
      <glyph glyph-name="pdf" unicode="&#58885;" d="M269.963636-128h605.090909c51.414109 0 93.090909 41.6768 93.09091 93.090909V634.023564a93.090909 93.090909 0 0 1-27.266328 65.815272L772.002909 868.742982A93.090909 93.090909 0 0 1 706.169018 896H269.963636c-51.414109 0-93.090909-41.6768-93.090909-93.090909v-837.818182c0-51.414109 41.6768-93.090909 93.090909-93.090909zM55.854545 244.363636m37.236364 0l409.6 0q37.236364 0 37.236364-37.236363l0-176.872728q0-37.236364-37.236364-37.236363l-409.6 0q-37.236364 0-37.236364 37.236363l0 176.872728q0 37.236364 37.236364 37.236363ZM744.727273 896l223.418182-223.418182H819.2a74.472727 74.472727 0 0 0-74.472727 74.472727V896zM307.2 737.745455h325.818182v-46.545455H307.2zM307.2 635.345455h325.818182v-46.545455H307.2zM307.2 532.945455h437.527273v-46.545455H307.2zM307.2 430.545455h530.618182v-46.545455H307.2zM131.220945 79.965091V58.181818H110.945745v21.783273h20.2752z m43.845819 17.259054V58.181818h-23.803346V169.946764h55.798691c10.165527 0 17.426618-0.726109 21.783273-2.178328 7.3728-2.4576 13.181673-7.540364 17.426618-15.248291 3.127855-5.808873 4.691782-12.120436 4.691782-18.93469 0-5.697164-1.061236-11.115055-3.183709-16.253673-2.010764-5.026909-4.859345-9.160145-8.545746-12.399709-3.351273-2.904436-6.925964-4.9152-10.724072-6.032291-3.6864-1.117091-8.769164-1.675636-15.248291-1.675637h-38.204509z m0 19.940073h32.330472c5.808873 0 9.886255 0.893673 12.232146 2.681018 3.462982 2.792727 5.194473 7.652073 5.194473 14.578037 0 7.484509-2.625164 12.288-7.875491 14.410472-1.899055 0.781964-4.9152 1.172945-9.048437 1.172946h-32.842472v-32.842473z m90.912581 52.782546h47.42051c11.841164 0 21.001309-1.172945 27.480436-3.518837 11.952873-4.356655 19.940073-12.343855 23.9616-23.9616 3.016145-8.936727 4.524218-18.487855 4.524218-28.653382 0-10.053818-1.452218-19.549091-4.356654-28.485818-2.904436-9.160145-7.707927-15.918545-14.410473-20.2752-4.244945-2.681018-8.936727-4.524218-14.075346-5.5296-5.026909-0.893673-12.734836-1.340509-23.123781-1.340509h-47.42051V169.946764z m23.794037-19.940073v-71.8848h23.626473c10.388945 0 17.594182 2.290036 21.615709 6.870109 2.4576 2.904436 4.412509 6.981818 5.864727 12.232145a58.414545 58.414545 0 0 1 2.345891 16.756364c0 6.590836-0.893673 12.623127-2.681018 18.096873-1.787345 5.473745-4.133236 9.551127-7.037673 12.232145-4.244945 3.798109-10.947491 5.697164-20.107636 5.697164h-23.626473z m185.120582-25.8048v-19.940073H408.203636V58.181818h-23.626472v58.312146c0.111709 16.756364 1.675636 27.759709 4.691781 33.010036 3.798109 7.3728 9.271855 12.623127 16.421237 15.750982 7.261091 3.127855 17.426618 4.691782 30.496582 4.691782h38.7072v-19.940073H439.202909c-11.0592-0.223418-18.152727-1.117091-21.280582-2.681018-6.255709-2.569309-9.495273-8.266473-9.718691-17.091491v-6.032291h66.690328z"  horiz-adv-x="1024" />
      
      <glyph glyph-name="shangzhang" unicode="&#58887;" d="M859.072 640l-170.816-20.48a6.912 6.912 0 0 1-4.032-11.712l50.88-49.024-193.472-193.792-87.424 87.424a13.888 13.888 0 0 1-19.392 0L159.104 176.64a7.296 7.296 0 0 1 0-9.856L197.76 128a6.912 6.912 0 0 1 9.536 0l237.376 236.992 87.04-87.04a14.272 14.272 0 0 1 19.328 0l232.64 232.576 50.816-50.816a6.976 6.976 0 0 1 11.712 4.032l20.48 170.752a6.72 6.72 0 0 1-2.688 4.416 6.592 6.592 0 0 1-4.992 1.088z"  horiz-adv-x="1024" />
      
      <glyph glyph-name="u26611" unicode="&#58902;" d="M1066.667 554.667H1024v-405.334a149.333 149.333 0 0 0-298.667 0v448A42.667 42.667 0 0 1 682.667 640v-682.667H768V-128H0v85.333h85.333V810.667A85.333 85.333 0 0 0 170.667 896h426.666a85.333 85.333 0 0 0 85.334-85.333v-85.334a128 128 0 0 0 128-128v-448a64 64 0 0 1 128 0V554.667H896a42.667 42.667 0 0 0-42.667 42.666v85.334A42.667 42.667 0 0 0 896 725.333v21.334a21.333 21.333 0 0 0 42.667 0v-21.334H1024v21.334a21.333 21.333 0 0 0 42.667 0v-21.334a42.667 42.667 0 0 0 42.666-42.666v-85.334a42.667 42.667 0 0 0-42.666-42.666zM341.333 85.333L512 256H384V384L256 213.333h128z m256 682.667H170.667v-256h426.666V768zM1024 682.667h-85.333a42.667 42.667 0 0 1 0-85.334H1024a42.667 42.667 0 0 1 0 85.334z"  horiz-adv-x="1109" />
      
      <glyph glyph-name="u26579" unicode="&#58901;" d="M971.733 478.507a463.573 463.573 0 0 1-27.306 88.106A458.24 458.24 0 0 1 901.76 646.4a42.667 42.667 0 1 1-70.613-47.787 374.613 374.613 0 0 0 57.6-137.173 384 384 0 0 0 0-154.88 374.613 374.613 0 0 0-57.6-137.173A386.773 386.773 0 0 0 661.333 30.08a387.84 387.84 0 0 0-226.986-21.333 379.307 379.307 0 0 0-71.894 21.333 393.6 393.6 0 0 0-65.28 35.413A384 384 0 0 0 193.28 169.387a374.613 374.613 0 0 0-57.6 137.173 384 384 0 0 0 0 154.88 374.613 374.613 0 0 0 57.6 137.173A386.773 386.773 0 0 0 362.667 737.92a387.84 387.84 0 0 0 226.986 21.333 379.307 379.307 0 0 0 71.894-21.333 393.6 393.6 0 0 0 65.28-35.413A42.667 42.667 0 1 1 774.4 773.12a450.56 450.56 0 0 1-79.787 42.667 463.573 463.573 0 0 1-88.106 27.306 469.333 469.333 0 0 1-189.014 0 463.573 463.573 0 0 1-88.106-27.306A450.56 450.56 0 0 1 249.6 773.12 463.147 463.147 0 0 1 122.88 646.4a458.24 458.24 0 0 1-42.667-79.787 469.333 469.333 0 0 1 0-365.226A458.24 458.24 0 0 1 122.88 121.6 463.147 463.147 0 0 1 249.6-5.12a450.56 450.56 0 0 1 79.787-42.667 469.333 469.333 0 0 1 365.226 0A450.56 450.56 0 0 1 774.4-5.12 463.147 463.147 0 0 1 901.12 121.6a458.24 458.24 0 0 1 42.667 79.787 469.333 469.333 0 0 1 27.306 277.333zM661.333 405.333a42.667 42.667 0 0 1 0 85.334H565.12l97.707 97.92a42.667 42.667 0 1 1-60.374 60.16L512 558.293l-90.453 90.454a42.667 42.667 0 1 1-60.374-60.16l97.707-97.92h-96.213a42.667 42.667 0 0 1 0-85.334h106.666V320H362.667a42.667 42.667 0 0 1 0-85.333h106.666V128a42.667 42.667 0 0 1 85.334 0V234.667h106.666a42.667 42.667 0 0 1 0 85.333H554.667v85.333z"  horiz-adv-x="1024" />
      
      <glyph glyph-name="u26599" unicode="&#58903;" d="M934.936 447.803H727.425l-39.15 192.017H804.59a31.901 31.901 0 0 1 32.289 31.819 31.901 31.901 0 0 1-32.289 31.818H675.242L646.578 844.122A64.993 64.993 0 0 1 582.941 895.474h-142.38c-30.795 0-57.91-21.58-63.637-51.352L348.287 703.43h-128.85a31.93 31.93 0 0 1-32.372-31.818c0-17.984 14.636-31.819 32.371-31.819h116.318l-39.15-192.017H89.063a31.93 31.93 0 0 1-32.317-31.486v-0.277c0-17.514 14.554-31.874 32.262-31.874H283.57l-95.953-474.343v-9.767c0-2.048 0.553-3.597 1.024-5.644 0.553-2.048 1.577-3.597 2.628-5.645a18.427 18.427 0 0 1 3.625-5.118c0.553-1.024 1.107-2.048 2.075-2.573 0.553-0.499 1.605-1.024 2.103-1.522 1.577-1.024 3.154-2.048 5.229-3.127 2.075-1.023 4.15-2.047 6.253-2.518 1.079 0 1.577-1.023 2.6-1.023h3.155c1.024 0 2.047-0.554 3.126-0.554 1.052 0 2.076 0.554 3.653 0.554a25.87 25.87 0 0 1 12.008 3.541 18.759 18.759 0 0 1 5.201 3.597c1.052 1.052 2.075 1.052 3.127 2.075l269.128 279.255 269.074-279.255c0.553-0.498 1.023-0.498 1.577-1.023a22.411 22.411 0 0 1 7.276-4.649c1.052-0.47 2.076-1.494 3.155-1.494 3.79-1.66 7.857-2.518 12.008-2.6 2.075 0 4.15 0 5.7 0.553 1.05 0 1.576 1.023 2.6 1.023 2.075 0.47 4.15 1.495 6.253 2.518l4.704 3.127c1.051 0.498 1.604 1.023 2.628 1.522 1.024 1.023 1.024 2.047 2.075 2.573a18.427 18.427 0 0 1 3.652 5.118c1.052 2.048 2.048 3.597 2.601 5.645 0.554 2.047 1.08 3.596 1.08 5.644v9.767l-96.48 473.845h194.508a31.901 31.901 0 0 1 32.316 31.542v0.277c0 17.43-14.083 32.372-32.289 32.372h-0.055zM441.612 832.363h141.385L609.06 704.01H415.521l26.063 128.353h0.056z m-39.067-192.57h219.049l39.123-192.045h-297.35l39.122 192.044h0.028z m235.18-256.18L512 253.766 386.331 383.64h251.366zM273.167 5.776l67.787 332.129 126.25-130.926-194.037-201.203zM683.1 337.905l67.815-332.13-194.01 201.204L683.1 337.905z"  horiz-adv-x="1024" />
      
      <glyph glyph-name="shousuo" unicode="&#58904;" d="M512 384m-512 0a512 512 0 1 1 1024 0 512 512 0 1 1-1024 0ZM785.472 201.92l-270.592 300.8-270.592-300.8a30.08 30.08 0 1 0-44.8 40.128l291.904 324.032a32.704 32.704 0 0 0 46.912 0l291.712-323.968a30.08 30.08 0 1 0-44.8-40.128z"  horiz-adv-x="1024" />
      
      <glyph glyph-name="zhankai" unicode="&#58909;" d="M512 384m-512 0a512 512 0 1 1 1024 0 512 512 0 1 1-1024 0ZM514.88 192a29.824 29.824 0 0 0-23.424 9.92l-291.712 324.032a30.08 30.08 0 0 0 44.8 40.128l270.592-300.8 270.336 300.8a30.08 30.08 0 0 0 44.8-40.128l-291.968-324.032a29.888 29.888 0 0 0-22.336-9.92z"  horiz-adv-x="1024" />
      
      <glyph glyph-name="daochu_u11065" unicode="&#58905;" d="M157.798673 812.629333h209.69016c23.730493 0.121384 46.125766-11.410058 59.720728-30.831433 18.632382-19.90691 32.955646-36.111619 43.091177-48.553438 22.455965-27.129233 22.455965-27.129233 62.573243-27.129233h401.779698A102.265679 102.265679 0 0 0 1031.760555 600.208043v-531.053227A102.265679 102.265679 0 0 0 934.653679-37.055829H157.798673A102.265679 102.265679 0 0 0 60.691797 69.154816V706.357996A102.265679 102.265679 0 0 0 157.798673 812.629333z m236.758701-458.344453L394.496683 354.345572c1.33522-12.745277 11.895592-22.577349 24.762253-22.9415h77.017891V151.088742a25.915397 25.915397 0 0 1 25.187096-26.886466h50.859726a24.276719 24.276719 0 0 1 17.843388 7.829242 27.67546 27.67546 0 0 1 7.343708 19.057224V331.404072h75.621979a25.551247 25.551247 0 0 1 24.762254 22.9415 46.24715 46.24715 0 0 1-9.285845 35.079859L570.502895 534.478826a29.556905 29.556905 0 0 1-47.521677 0L403.903911 389.364739a46.6113 46.6113 0 0 1-9.346537-35.079859z"  horiz-adv-x="1243" />
      
      <glyph glyph-name="u26592" unicode="&#58906;" d="M24.97561-128L999.02439 896v-1024H24.97561z"  horiz-adv-x="1024" />
      
      <glyph glyph-name="u4592" unicode="&#58907;" d="M986.85032 895.5891c7.643743 0 14.444869-2.106543 20.583938-6.259443a35.690863 35.690863 0 0 0 15.40786-36.533481l-146.133922-877.044278a35.991798 35.991798 0 0 0-18.236647-25.699829 35.028807 35.028807 0 0 0-31.417589-1.685234l-258.502963 105.628102-138.06887-168.463281a33.58432 33.58432 0 0 0-27.986933-13.120756 30.81572 30.81572 0 0 0-12.518886 2.287104 35.811237 35.811237 0 0 0-17.454217 13.421691 35.630676 35.630676 0 0 0-6.500191 20.824686v199.279001l492.991332 604.638129L249.018464 184.781186 23.618325 277.228346c-14.083747 5.356639-21.667303 15.768982-22.871042 31.417589a33.825068 33.825068 0 0 0 18.296834 33.704694L968.613673 890.413022A34.908433 34.908433 0 0 0 986.85032 895.5891z"  horiz-adv-x="1024" />
      
      <glyph glyph-name="u26605" unicode="&#58908;" d="M878.933 85.333H145.067C100.267 85.333 64 121.6 64 166.4V686.933c0 44.8 36.267 81.067 81.067 81.067H876.8c46.933 0 83.2-36.267 83.2-81.067v-518.4c0-46.933-36.267-83.2-81.067-83.2z m-733.866 640c-21.334 0-38.4-17.066-38.4-38.4v-518.4c0-21.333 17.066-38.4 38.4-38.4H876.8c21.333 0 38.4 17.067 38.4 38.4v518.4c0 21.334-17.067 38.4-38.4 38.4H145.067z m622.933-768H256c-12.8 0-21.333 8.534-21.333 21.334S243.2 0 256 0h512c12.8 0 21.333-8.533 21.333-21.333S780.8-42.667 768-42.667zM213.333 170.667C200.533 170.667 192 179.2 192 192V512c0 12.8 8.533 21.333 21.333 21.333S234.667 524.8 234.667 512v-320c0-12.8-8.534-21.333-21.334-21.333z m138.667 0c-12.8 0-21.333 8.533-21.333 21.333V362.667c0 12.8 8.533 21.333 21.333 21.333s21.333-8.533 21.333-21.333V192c0-12.8-8.533-21.333-21.333-21.333z m138.667 0c-12.8 0-21.334 8.533-21.334 21.333V554.667c0 12.8 8.534 21.333 21.334 21.333S512 567.467 512 554.667V192c0-12.8-8.533-21.333-21.333-21.333z m138.666 0C616.533 170.667 608 179.2 608 192V448c0 12.8 8.533 21.333 21.333 21.333S650.667 460.8 650.667 448v-256c0-12.8-8.534-21.333-21.334-21.333z m138.667 0c-12.8 0-21.333 8.533-21.333 21.333V320c0 12.8 8.533 21.333 21.333 21.333S789.333 332.8 789.333 320v-128c0-12.8-8.533-21.333-21.333-21.333zM793.6 544c-6.4 0-12.8 2.133-17.067 6.4l-42.666 27.733c-10.667 6.4-12.8 19.2-6.4 29.867 6.4 10.667 19.2 12.8 29.866 6.4l32-23.467 66.134 83.2c6.4 8.534 21.333 10.667 29.866 2.134 8.534-6.4 10.667-21.334 2.134-29.867l-72.534-91.733c-4.266-6.4-10.666-10.667-19.2-12.8 2.134 2.133 0 2.133-2.133 2.133z"  horiz-adv-x="1024" />
      
      <glyph glyph-name="wenbenbianjitianchong" unicode="&#59092;" d="M384.8192 110.3872c20.7872 25.8048 45.2608 49.4592 68.5056 73.1136 63.2832 64.4096 126.6688 128.9216 189.952 193.3312 59.0848 60.1088 118.1696 120.2176 177.152 180.3264 13.2096 13.4144 25.8048 29.7984 40.5504 41.472 15.36 12.0832 25.6 4.5056 37.5808-7.7824 10.5472-10.8544 20.7872-22.016 31.1296-32.9728 2.3552-2.56 15.9744-13.2096 15.9744-16.896 0 0-0.3072 258.4576-0.3072 258.4576 0 38.6048-31.4368 70.0416-70.0416 70.0416L135.7824 869.4784c-38.6048 0-70.0416-31.4368-70.0416-70.0416l0-812.6464c0-38.6048 31.4368-70.0416 70.0416-70.0416l183.7056-0.9216 36.4544 136.704C356.0448 52.5312 364.544 85.1968 384.8192 110.3872zM461.2096 463.7696 207.36 463.7696c-11.9808 0-21.7088 9.728-21.7088 21.7088 0 11.9808 9.728 21.7088 21.7088 21.7088l253.8496 0c11.9808 0 21.7088-9.728 21.7088-21.7088C483.0208 473.4976 473.1904 463.7696 461.2096 463.7696zM637.952 578.3552 207.36 578.3552c-11.9808 0-21.7088 9.728-21.7088 21.7088 0 11.9808 9.728 21.7088 21.7088 21.7088L637.952 621.7728c11.9808 0 21.7088-9.728 21.7088-21.7088C659.6608 588.0832 649.9328 578.3552 637.952 578.3552zM758.1696 693.0432 207.36 693.0432c-11.9808 0-21.7088 9.728-21.7088 21.7088 0 11.9808 9.728 21.7088 21.7088 21.7088l550.8096 0c11.9808 0 21.7088-9.728 21.7088-21.7088C779.8784 702.7712 770.1504 693.0432 758.1696 693.0432zM992.5632 394.5472 891.4944 495.616c-10.752 10.752-29.5936 10.752-40.3456 0L428.2368 72.9088c-1.7408-1.7408-3.072-3.9936-3.6864-6.3488l-42.2912-151.6544c-1.3312-4.8128-0.1024-10.0352 3.2768-13.7216 2.7648-2.9696 6.656-4.7104 10.6496-4.7104 0.9216 0 1.7408 0.1024 2.6624 0.2048L562.176-72.704c2.8672 0.512 5.5296 1.9456 7.5776 3.9936l422.912 422.8096C1003.7248 365.2608 1003.7248 383.3856 992.5632 394.5472zM927.1296 310.6816c-5.4272-5.4272-13.9264-5.7344-19.0464-0.6144l-100.864 100.864c-5.12 5.12-4.8128 13.6192 0.6144 19.0464 5.4272 5.4272 14.0288 5.7344 19.0464 0.6144l100.864-100.864C932.864 324.7104 932.5568 316.1088 927.1296 310.6816z"  horiz-adv-x="1024" />
      
      <glyph glyph-name="shanchu" unicode="&#59211;" d="M607.897867 127.956996c-17.717453 0-31.994625 14.277171-31.994625 31.994625L575.903242 512.064505c0 17.717453 14.277171 31.994625 31.994625 31.994625s31.994625-14.277171 31.994625-31.994625l0-351.94087C639.892491 142.406182 625.61532 127.956996 607.897867 127.956996zM415.930119 127.956996c-17.717453 0-31.994625 14.277171-31.994625 31.994625L383.935495 512.064505c0 17.717453 14.277171 31.994625 31.994625 31.994625 17.717453 0 31.994625-14.277171 31.994625-31.994625l0-351.94087C447.924744 142.406182 433.647573 127.956996 415.930119 127.956996zM928.016126 672.037628l-159.973123 0L768.043004 736.026877c0 52.980346-42.659499 95.983874-95.295817 95.983874L351.94087 832.010751c-52.980346 0-95.983874-43.003528-95.983874-95.983874l0-63.989249-159.973123 0c-17.717453 0-31.994625-14.277171-31.994625-31.994625s14.277171-31.994625 31.994625-31.994625l832.032253 0c17.717453 0 31.994625 14.277171 31.994625 31.994625S945.73358 672.037628 928.016126 672.037628zM319.946246 736.026877c0 17.545439 14.449185 31.994625 31.994625 31.994625l320.806316 0c17.545439 0 31.306568-14.105157 31.306568-31.994625l0-63.989249L319.946246 672.037628 319.946246 736.026877 319.946246 736.026877zM736.048379-64.010751 288.123635-64.010751c-52.980346 0-95.983874 43.003528-95.983874 95.983874L192.139761 512.408534c0 17.717453 14.277171 31.994625 31.994625 31.994625s31.994625-14.277171 31.994625-31.994625l0-480.435411c0-17.717453 14.449185-31.994625 31.994625-31.994625l448.096758 0c17.717453 0 31.994625 14.277171 31.994625 31.994625L768.215018 511.204435c0 17.717453 14.277171 31.994625 31.994625 31.994625s31.994625-14.277171 31.994625-31.994625l0-479.231312C832.032253-20.835209 789.028725-64.010751 736.048379-64.010751z"  horiz-adv-x="1024" />
      
      <glyph glyph-name="xinzeng" unicode="&#58912;" d="M526.925944 785.476791c-212.498742 0-384.763131-172.264389-384.763131-384.763131s172.264389-384.763131 384.763131-384.763131 384.763131 172.264389 384.763131 384.763131S739.424686 785.476791 526.925944 785.476791zM786.320763 382.552022c0-10.737552-8.705266-19.442818-19.442818-19.442818L564.5304 363.109204l0-202.347544c0-10.737552-8.705266-19.442818-19.442818-19.442818l-36.323277 0c-10.737552 0-19.442818 8.705266-19.442818 19.442818L489.321488 363.109204l-202.348568 0c-10.737552 0-19.442818 8.705266-19.442818 19.442818l0 36.323277c0 10.737552 8.705266 19.442818 19.442818 19.442818l202.347544 0L489.320465 640.665661c0 10.737552 8.705266 19.442818 19.442818 19.442818l36.323277 0c10.737552 0 19.442818-8.705266 19.442818-19.442818l0-202.347544L766.876921 438.318116c10.737552 0 19.442818-8.705266 19.442818-19.442818l0-36.323277L786.320763 382.552022z"  horiz-adv-x="1024" />
      
      <glyph glyph-name="sousuo" unicode="&#58890;" d="M769.316571 186.98971400000005l182.747429-182.674285-60.342857-60.379429-182.710857 182.747429a382.281143 382.281143 0 0 0-239.689143-84.004572c-211.968 0-384 172.032-384 384s172.032 384 384 384 384-172.032 384-384a382.281143 382.281143 0 0 0-84.004572-239.689143z m-85.577142 31.670857A297.691429 297.691429 0 0 1 768 426.678857a298.569143 298.569143 0 0 1-298.678857 298.642286 298.569143 298.569143 0 0 1-298.642286-298.642286A298.569143 298.569143 0 0 1 469.321143 128a297.691429 297.691429 0 0 1 208.018286 84.260571l6.4 6.4z"  horiz-adv-x="1024" />
      
    </font>
</defs>
</svg>
