<svg xmlns="http://www.w3.org/2000/svg" xmlns:xlink="http://www.w3.org/1999/xlink" width="80" zoomAndPan="magnify" viewBox="0 0 60 60" height="80" preserveAspectRatio="xMidYMid meet" version="1.0"><defs><g><g id="id1"/></g></defs><g fill="rgb(0%, 50.19989%, 21.569824%)" fill-opacity="1"><g transform="translate(5.258877, 38.122081)"><g><path d="M 9.90625 -5 C 9.070312 -5 8.53125 -5.015625 8.28125 -5.046875 C 8.039062 -5.085938 7.84375 -5.175781 7.6875 -5.3125 C 7.53125 -5.457031 7.425781 -5.625 7.375 -5.8125 C 7.320312 -6 7.398438 -6.320312 7.609375 -6.78125 C 7.710938 -7.019531 7.875 -7.453125 8.09375 -8.078125 C 8.320312 -8.703125 8.503906 -9.148438 8.640625 -9.421875 C 8.785156 -9.703125 8.941406 -9.960938 9.109375 -10.203125 C 9.285156 -10.453125 9.441406 -10.585938 9.578125 -10.609375 C 9.722656 -10.628906 9.921875 -10.515625 10.171875 -10.265625 C 10.335938 -10.023438 10.539062 -9.660156 10.78125 -9.171875 C 11.03125 -8.679688 11.222656 -8.265625 11.359375 -7.921875 L 11.828125 -6.625 C 11.929688 -6.269531 11.984375 -6.023438 11.984375 -5.890625 C 11.921875 -5.648438 11.75 -5.441406 11.46875 -5.265625 C 11.1875 -5.085938 10.957031 -4.988281 10.78125 -4.96875 C 10.613281 -4.957031 10.320312 -4.96875 9.90625 -5 Z M 9.640625 -1.5625 C 8.910156 -1.53125 8.378906 -1.460938 8.046875 -1.359375 C 7.722656 -1.253906 7.472656 -1.128906 7.296875 -0.984375 C 7.117188 -0.847656 6.804688 -0.519531 6.359375 0 C 5.910156 0.519531 5.476562 0.910156 5.0625 1.171875 C 4.644531 1.429688 4.175781 1.578125 3.65625 1.609375 C 3.164062 1.679688 2.71875 1.617188 2.3125 1.421875 C 1.914062 1.234375 1.566406 0.96875 1.265625 0.625 C 0.972656 0.28125 0.789062 -0.132812 0.71875 -0.625 C 0.65625 -1.113281 0.742188 -1.878906 0.984375 -2.921875 C 1.265625 -3.960938 1.578125 -4.96875 1.921875 -5.9375 C 2.273438 -6.914062 2.710938 -8.007812 3.234375 -9.21875 C 3.753906 -10.4375 4.289062 -11.601562 4.84375 -12.71875 C 5.40625 -13.832031 5.847656 -14.640625 6.171875 -15.140625 C 6.503906 -15.640625 6.84375 -16.0625 7.1875 -16.40625 C 7.539062 -16.757812 7.898438 -17.03125 8.265625 -17.21875 C 8.628906 -17.414062 9.035156 -17.53125 9.484375 -17.5625 C 9.972656 -17.5625 10.453125 -17.421875 10.921875 -17.140625 C 11.390625 -16.867188 11.832031 -16.515625 12.25 -16.078125 C 12.664062 -15.640625 13.125 -15.015625 13.625 -14.203125 C 14.132812 -13.390625 14.5625 -12.617188 14.90625 -11.890625 L 15.84375 -9.75 L 17.203125 -6.828125 C 17.484375 -6.128906 17.753906 -5.316406 18.015625 -4.390625 C 18.273438 -3.472656 18.484375 -2.664062 18.640625 -1.96875 C 18.796875 -1.28125 18.785156 -0.660156 18.609375 -0.109375 C 18.398438 0.484375 18.085938 0.890625 17.671875 1.109375 C 17.253906 1.335938 16.867188 1.472656 16.515625 1.515625 C 15.960938 1.578125 15.453125 1.539062 14.984375 1.40625 C 14.515625 1.269531 14.128906 1.085938 13.828125 0.859375 C 13.535156 0.628906 13.195312 0.273438 12.8125 -0.203125 C 12.4375 -0.691406 12.132812 -1.015625 11.90625 -1.171875 C 11.6875 -1.328125 11.367188 -1.429688 10.953125 -1.484375 C 10.535156 -1.535156 10.097656 -1.5625 9.640625 -1.5625 Z M 17.09375 -0.984375 C 17.132812 -1.160156 17.117188 -1.539062 17.046875 -2.125 C 16.972656 -2.71875 16.628906 -3.820312 16.015625 -5.4375 C 15.410156 -7.0625 15.003906 -8.109375 14.796875 -8.578125 C 14.585938 -9.046875 14.171875 -9.90625 13.546875 -11.15625 C 12.921875 -12.40625 12.414062 -13.332031 12.03125 -13.9375 C 11.65625 -14.550781 11.238281 -15.03125 10.78125 -15.375 C 10.332031 -15.71875 9.898438 -15.890625 9.484375 -15.890625 C 9.097656 -15.859375 8.757812 -15.71875 8.46875 -15.46875 C 8.175781 -15.226562 7.835938 -14.832031 7.453125 -14.28125 C 7.066406 -13.726562 6.640625 -13.023438 6.171875 -12.171875 C 5.703125 -11.316406 5.242188 -10.375 4.796875 -9.34375 C 4.347656 -8.320312 4.007812 -7.472656 3.78125 -6.796875 C 3.550781 -6.117188 3.296875 -5.351562 3.015625 -4.5 C 2.742188 -3.65625 2.5625 -3.023438 2.46875 -2.609375 C 2.382812 -2.191406 2.359375 -1.828125 2.390625 -1.515625 C 2.390625 -1.128906 2.492188 -0.785156 2.703125 -0.484375 C 2.910156 -0.191406 3.207031 -0.03125 3.59375 0 C 3.90625 0.03125 4.285156 -0.046875 4.734375 -0.234375 C 5.191406 -0.421875 5.59375 -0.757812 5.9375 -1.25 L 6.671875 -2.234375 C 6.804688 -2.378906 6.988281 -2.507812 7.21875 -2.625 C 7.445312 -2.75 7.734375 -2.835938 8.078125 -2.890625 C 8.421875 -2.941406 8.925781 -2.984375 9.59375 -3.015625 C 10.394531 -3.054688 10.957031 -3.039062 11.28125 -2.96875 C 11.613281 -2.894531 11.890625 -2.796875 12.109375 -2.671875 C 12.335938 -2.554688 12.503906 -2.445312 12.609375 -2.34375 C 12.710938 -2.238281 12.90625 -2.007812 13.1875 -1.65625 C 13.46875 -1.3125 13.78125 -0.972656 14.125 -0.640625 C 14.46875 -0.316406 14.832031 -0.0976562 15.21875 0.015625 C 15.601562 0.140625 15.976562 0.125 16.34375 -0.03125 C 16.707031 -0.1875 16.957031 -0.503906 17.09375 -0.984375 Z M 17.09375 -0.984375 "/></g></g></g><g fill="rgb(0%, 50.19989%, 21.569824%)" fill-opacity="1"><g transform="translate(24.753804, 38.122081)"><g><path d="M 19.5 -8.078125 C 19.394531 -6.335938 19.316406 -5.113281 19.265625 -4.40625 C 19.210938 -3.695312 19.140625 -3.023438 19.046875 -2.390625 C 18.960938 -1.765625 18.820312 -1.175781 18.625 -0.625 C 18.4375 -0.0703125 18.144531 0.410156 17.75 0.828125 C 17.351562 1.242188 16.890625 1.460938 16.359375 1.484375 C 15.835938 1.503906 15.390625 1.359375 15.015625 1.046875 C 14.703125 0.835938 14.441406 0.554688 14.234375 0.203125 C 14.023438 -0.140625 13.925781 -0.585938 13.9375 -1.140625 C 13.957031 -1.703125 13.921875 -2.0625 13.828125 -2.21875 C 13.742188 -2.375 13.632812 -2.457031 13.5 -2.46875 C 13.363281 -2.488281 13.222656 -2.410156 13.078125 -2.234375 C 13.015625 -2.128906 12.867188 -1.78125 12.640625 -1.1875 C 12.410156 -0.601562 12.097656 -0.128906 11.703125 0.234375 C 11.304688 0.597656 10.890625 0.804688 10.453125 0.859375 C 10.015625 0.910156 9.585938 0.796875 9.171875 0.515625 C 8.785156 0.304688 8.425781 -0.03125 8.09375 -0.5 C 7.769531 -0.96875 7.53125 -1.398438 7.375 -1.796875 C 7.21875 -2.191406 7.066406 -2.398438 6.921875 -2.421875 C 6.785156 -2.441406 6.664062 -2.378906 6.5625 -2.234375 C 6.457031 -2.097656 6.394531 -1.796875 6.375 -1.328125 C 6.363281 -0.859375 6.28125 -0.441406 6.125 -0.078125 C 5.96875 0.285156 5.710938 0.625 5.359375 0.9375 C 5.015625 1.25 4.597656 1.457031 4.109375 1.5625 C 3.628906 1.664062 3.128906 1.578125 2.609375 1.296875 C 2.046875 1.054688 1.648438 0.726562 1.421875 0.3125 C 1.203125 -0.101562 1.046875 -0.675781 0.953125 -1.40625 C 0.867188 -2.132812 0.789062 -3.269531 0.71875 -4.8125 C 0.65625 -6.363281 0.625 -7.539062 0.625 -8.34375 C 0.625 -9.5625 0.664062 -10.671875 0.75 -11.671875 C 0.84375 -12.679688 0.914062 -13.421875 0.96875 -13.890625 C 1.019531 -14.359375 1.164062 -14.84375 1.40625 -15.34375 C 1.644531 -15.851562 1.945312 -16.253906 2.3125 -16.546875 C 2.675781 -16.847656 3.003906 -17.050781 3.296875 -17.15625 C 3.597656 -17.257812 3.925781 -17.328125 4.28125 -17.359375 C 4.65625 -17.359375 5.035156 -17.296875 5.421875 -17.171875 C 5.804688 -17.054688 6.179688 -16.835938 6.546875 -16.515625 C 6.910156 -16.203125 7.222656 -15.851562 7.484375 -15.46875 C 7.742188 -15.09375 8.035156 -14.539062 8.359375 -13.8125 C 8.691406 -13.082031 8.9375 -12.484375 9.09375 -12.015625 C 9.25 -11.546875 9.382812 -11.179688 9.5 -10.921875 C 9.625 -10.660156 9.773438 -10.507812 9.953125 -10.46875 C 10.128906 -10.4375 10.375 -10.679688 10.6875 -11.203125 C 10.894531 -11.515625 11.179688 -12.140625 11.546875 -13.078125 C 11.910156 -14.015625 12.316406 -14.8125 12.765625 -15.46875 C 13.222656 -16.132812 13.710938 -16.640625 14.234375 -16.984375 C 14.753906 -17.335938 15.34375 -17.5 16 -17.46875 C 16.5625 -17.394531 17.050781 -17.179688 17.46875 -16.828125 C 17.882812 -16.484375 18.226562 -16.039062 18.5 -15.5 C 18.78125 -14.96875 18.988281 -14.335938 19.125 -13.609375 C 19.269531 -12.878906 19.359375 -12.179688 19.390625 -11.515625 Z M 15.953125 0.046875 C 16.117188 0.117188 16.320312 0.109375 16.5625 0.015625 C 16.8125 -0.0664062 17.039062 -0.28125 17.25 -0.625 C 17.457031 -0.96875 17.628906 -1.492188 17.765625 -2.203125 C 17.910156 -2.921875 18.035156 -3.734375 18.140625 -4.640625 C 18.242188 -5.546875 18.28125 -6.726562 18.25 -8.1875 C 18.207031 -9.226562 18.144531 -10.335938 18.0625 -11.515625 C 17.976562 -12.703125 17.863281 -13.585938 17.71875 -14.171875 C 17.582031 -14.765625 17.335938 -15.222656 16.984375 -15.546875 C 16.640625 -15.878906 16.191406 -16.03125 15.640625 -16 C 15.222656 -15.925781 14.796875 -15.722656 14.359375 -15.390625 C 13.921875 -15.066406 13.609375 -14.726562 13.421875 -14.375 C 13.234375 -14.03125 12.894531 -13.269531 12.40625 -12.09375 L 11.203125 -9.328125 C 10.992188 -8.671875 10.800781 -8.226562 10.625 -8 C 10.457031 -7.769531 10.25 -7.640625 10 -7.609375 C 9.757812 -7.578125 9.519531 -7.734375 9.28125 -8.078125 C 9.132812 -8.210938 9.023438 -8.382812 8.953125 -8.59375 C 8.890625 -8.800781 8.585938 -9.582031 8.046875 -10.9375 C 7.515625 -12.300781 7.160156 -13.140625 6.984375 -13.453125 C 6.804688 -13.765625 6.550781 -14.171875 6.21875 -14.671875 C 5.894531 -15.171875 5.617188 -15.5 5.390625 -15.65625 C 5.171875 -15.8125 4.882812 -15.910156 4.53125 -15.953125 C 4.320312 -15.953125 4.085938 -15.914062 3.828125 -15.84375 C 3.566406 -15.769531 3.320312 -15.601562 3.09375 -15.34375 C 2.875 -15.082031 2.675781 -14.734375 2.5 -14.296875 C 2.320312 -13.867188 2.179688 -13.359375 2.078125 -12.765625 C 1.972656 -12.179688 1.910156 -11.191406 1.890625 -9.796875 C 1.878906 -8.410156 1.910156 -7.003906 1.984375 -5.578125 C 2.015625 -4.429688 2.054688 -3.390625 2.109375 -2.453125 C 2.160156 -1.515625 2.34375 -0.816406 2.65625 -0.359375 C 2.96875 0.0859375 3.347656 0.316406 3.796875 0.328125 C 4.253906 0.347656 4.65625 0.132812 5 -0.3125 C 5.175781 -0.550781 5.289062 -0.878906 5.34375 -1.296875 C 5.394531 -1.710938 5.460938 -2.269531 5.546875 -2.96875 C 5.640625 -3.664062 5.710938 -4.203125 5.765625 -4.578125 C 5.816406 -4.960938 5.882812 -5.25 5.96875 -5.4375 C 6.050781 -5.632812 6.171875 -5.773438 6.328125 -5.859375 C 6.484375 -5.953125 6.71875 -5.894531 7.03125 -5.6875 C 7.207031 -5.507812 7.382812 -5.226562 7.5625 -4.84375 L 8.234375 -2.96875 C 8.441406 -2.445312 8.707031 -1.96875 9.03125 -1.53125 C 9.363281 -1.101562 9.703125 -0.863281 10.046875 -0.8125 C 10.398438 -0.757812 10.769531 -0.921875 11.15625 -1.296875 C 11.289062 -1.441406 11.484375 -1.804688 11.734375 -2.390625 L 12.453125 -4.0625 L 12.765625 -4.90625 C 12.941406 -5.320312 13.160156 -5.613281 13.421875 -5.78125 C 13.679688 -5.957031 13.921875 -6 14.140625 -5.90625 C 14.367188 -5.820312 14.554688 -5.488281 14.703125 -4.90625 C 14.804688 -4.3125 14.847656 -3.550781 14.828125 -2.625 C 14.804688 -1.707031 14.914062 -1.039062 15.15625 -0.625 C 15.40625 -0.207031 15.671875 0.015625 15.953125 0.046875 Z M 15.953125 0.046875 "/></g></g></g><g fill="rgb(0%, 50.19989%, 21.569824%)" fill-opacity="1"><g transform="translate(44.769985, 38.122081)"><g><path d="M 3.96875 -17.40625 C 4.519531 -17.40625 4.941406 -17.316406 5.234375 -17.140625 C 5.535156 -16.972656 5.820312 -16.707031 6.09375 -16.34375 C 6.375 -15.976562 6.582031 -15.601562 6.71875 -15.21875 C 6.863281 -14.832031 6.96875 -14.34375 7.03125 -13.75 C 7.101562 -13.164062 7.171875 -12.394531 7.234375 -11.4375 C 7.304688 -10.488281 7.351562 -9.628906 7.375 -8.859375 C 7.394531 -8.097656 7.40625 -7.316406 7.40625 -6.515625 C 7.363281 -5.546875 7.328125 -4.710938 7.296875 -4.015625 C 7.265625 -3.316406 7.203125 -2.566406 7.109375 -1.765625 C 7.023438 -0.972656 6.859375 -0.367188 6.609375 0.046875 C 6.367188 0.460938 6.03125 0.8125 5.59375 1.09375 C 5.164062 1.375 4.640625 1.492188 4.015625 1.453125 C 3.390625 1.453125 2.847656 1.332031 2.390625 1.09375 C 1.941406 0.851562 1.601562 0.53125 1.375 0.125 C 1.15625 -0.269531 0.992188 -1.023438 0.890625 -2.140625 C 0.785156 -3.253906 0.734375 -4.207031 0.734375 -5 L 0.734375 -8.96875 C 0.734375 -11.050781 0.734375 -12.265625 0.734375 -12.609375 C 0.765625 -13.546875 0.898438 -14.328125 1.140625 -14.953125 C 1.390625 -15.578125 1.671875 -16.070312 1.984375 -16.4375 C 2.296875 -16.8125 2.609375 -17.054688 2.921875 -17.171875 C 3.234375 -17.296875 3.582031 -17.375 3.96875 -17.40625 Z M 4.015625 -15.796875 C 3.671875 -15.753906 3.363281 -15.617188 3.09375 -15.390625 C 2.832031 -15.171875 2.640625 -14.878906 2.515625 -14.515625 C 2.398438 -14.148438 2.316406 -13.609375 2.265625 -12.890625 C 2.210938 -12.179688 2.175781 -11.488281 2.15625 -10.8125 C 2.144531 -10.132812 2.15625 -9.429688 2.1875 -8.703125 C 2.1875 -7.691406 2.191406 -6.5625 2.203125 -5.3125 C 2.222656 -4.0625 2.257812 -3.125 2.3125 -2.5 C 2.363281 -1.875 2.453125 -1.410156 2.578125 -1.109375 C 2.703125 -0.816406 2.882812 -0.566406 3.125 -0.359375 C 3.375 -0.148438 3.707031 -0.0351562 4.125 -0.015625 C 4.539062 -0.00390625 4.921875 -0.15625 5.265625 -0.46875 C 5.472656 -0.644531 5.617188 -0.878906 5.703125 -1.171875 C 5.796875 -1.460938 5.847656 -1.789062 5.859375 -2.15625 C 5.878906 -2.519531 5.894531 -3.3125 5.90625 -4.53125 C 5.925781 -5.75 5.945312 -6.503906 5.96875 -6.796875 C 5.988281 -7.097656 5.976562 -7.957031 5.9375 -9.375 L 5.890625 -11.78125 C 5.859375 -12.644531 5.796875 -13.300781 5.703125 -13.75 C 5.617188 -14.207031 5.488281 -14.59375 5.3125 -14.90625 C 5.144531 -15.21875 4.9375 -15.441406 4.6875 -15.578125 C 4.445312 -15.722656 4.222656 -15.796875 4.015625 -15.796875 Z M 4.015625 -15.796875 "/></g></g></g></svg>